<svg width="28" height="28" viewBox="0 0 28 28" fill="none" xmlns="http://www.w3.org/2000/svg">
<g id="bar-chart-10">
<path id="Icon" d="M10.5 8.16667H5.36667C4.71327 8.16667 4.38657 8.16667 4.13701 8.29383C3.91749 8.40568 3.73901 8.58416 3.62716 8.80368C3.5 9.05324 3.5 9.37994 3.5 10.0333V22.6333C3.5 23.2867 3.5 23.6134 3.62716 23.863C3.73901 24.0825 3.91749 24.261 4.13701 24.3728C4.38657 24.5 4.71327 24.5 5.36667 24.5H10.5M10.5 24.5H17.5M10.5 24.5L10.5 5.36667C10.5 4.71327 10.5 4.38657 10.6272 4.13701C10.739 3.91749 10.9175 3.73901 11.137 3.62716C11.3866 3.5 11.7133 3.5 12.3667 3.5L15.6333 3.5C16.2867 3.5 16.6134 3.5 16.863 3.62716C17.0825 3.73901 17.261 3.91749 17.3728 4.13701C17.5 4.38657 17.5 4.71327 17.5 5.36667V24.5M17.5 12.8333H22.6333C23.2867 12.8333 23.6134 12.8333 23.863 12.9605C24.0825 13.0723 24.261 13.2508 24.3728 13.4703C24.5 13.7199 24.5 14.0466 24.5 14.7V22.6333C24.5 23.2867 24.5 23.6134 24.3728 23.863C24.261 24.0825 24.0825 24.261 23.863 24.3728C23.6134 24.5 23.2867 24.5 22.6333 24.5H17.5" stroke="#932F19" stroke-width="2" stroke-linecap="round" stroke-linejoin="round"/>
</g>
</svg>
