<svg width="26" height="26" viewBox="0 0 26 26" fill="none" xmlns="http://www.w3.org/2000/svg">
<g id="folder">
<path id="Icon" d="M14.0833 7.58333L12.8748 5.16633C12.527 4.4707 12.3531 4.12287 12.0937 3.86876C11.8642 3.64404 11.5877 3.47314 11.2841 3.36842C10.9408 3.25 10.5519 3.25 9.77415 3.25H5.63334C4.41989 3.25 3.81317 3.25 3.34969 3.48615C2.94201 3.69388 2.61055 4.02534 2.40282 4.43302C2.16667 4.8965 2.16667 5.50322 2.16667 6.71667V7.58333M2.16667 7.58333H18.6333C20.4535 7.58333 21.3636 7.58333 22.0588 7.93756C22.6703 8.24915 23.1675 8.74634 23.4791 9.35786C23.8333 10.0531 23.8333 10.9632 23.8333 12.7833V17.55C23.8333 19.3702 23.8333 20.2803 23.4791 20.9755C23.1675 21.587 22.6703 22.0842 22.0588 22.3958C21.3636 22.75 20.4535 22.75 18.6333 22.75H7.36667C5.5465 22.75 4.63642 22.75 3.9412 22.3958C3.32968 22.0842 2.83249 21.587 2.5209 20.9755C2.16667 20.2803 2.16667 19.3702 2.16667 17.55V7.58333Z" stroke="#932F19" stroke-width="2" stroke-linecap="round" stroke-linejoin="round"/>
</g>
</svg>
