<svg width="28" height="28" viewBox="0 0 28 28" fill="none" xmlns="http://www.w3.org/2000/svg">
<g id="check-verified-03">
<path id="Icon" d="M10.5 13.9999L12.8333 16.3333L18.0833 11.0833M10.7355 24.0343C11.1179 23.9837 11.5042 24.0874 11.8088 24.322L13.2125 25.3992C13.6766 25.7557 14.3221 25.7557 14.7848 25.3992L16.2417 24.2806C16.5139 24.0719 16.8574 23.9798 17.197 24.0252L19.0195 24.265C19.5989 24.3415 20.1575 24.0187 20.3818 23.4782L21.083 21.7827C21.2139 21.4651 21.4654 21.2136 21.7829 21.0827L23.4784 20.3814C24.0189 20.1585 24.3416 19.5985 24.2651 19.019L24.0344 17.2626C23.9839 16.8802 24.0876 16.4939 24.3222 16.1893L25.3993 14.7855C25.7558 14.3214 25.7558 13.6759 25.3993 13.2131L24.2807 11.7561C24.072 11.4839 23.98 11.1404 24.0253 10.8007L24.2651 8.97821C24.3416 8.39878 24.0189 7.84009 23.4784 7.61584L21.7829 6.91456C21.4654 6.78364 21.2139 6.53216 21.083 6.21458L20.3818 4.51907C20.1588 3.97853 19.5989 3.65576 19.0195 3.73224L17.197 3.97205C16.8574 4.01871 16.5139 3.92668 16.243 3.71928L14.7861 2.60061C14.3221 2.24413 13.6766 2.24413 13.2138 2.60061L11.7569 3.71928C11.4847 3.92668 11.1412 4.01871 10.8016 3.97464L8.97919 3.73483C8.3998 3.65835 7.84114 3.98112 7.6169 4.52166L6.91696 6.21717C6.78475 6.53346 6.53329 6.78493 6.21702 6.91715L4.5216 7.61713C3.98109 7.84139 3.65834 8.40007 3.73482 8.9795L3.97461 10.802C4.01868 11.1417 3.92665 11.4852 3.71926 11.7561L2.60065 13.2131C2.2442 13.6771 2.2442 14.3227 2.60065 14.7855L3.71926 16.2424C3.92795 16.5147 4.01998 16.8582 3.97461 17.1978L3.73482 19.0203C3.65834 19.5998 3.98109 20.1585 4.5216 20.3827L6.21702 21.084C6.53458 21.2149 6.78604 21.4664 6.91696 21.784L7.6182 23.4795C7.84114 24.02 8.40109 24.3428 8.98049 24.2663L10.7355 24.0343Z" stroke="#932F19" stroke-width="2" stroke-linecap="round" stroke-linejoin="round"/>
</g>
</svg>
