<svg width="28" height="28" viewBox="0 0 28 28" fill="none" xmlns="http://www.w3.org/2000/svg">
<g id="pie-chart-01">
<path id="Icon" d="M24.7454 18.5384C24.0032 20.2936 22.8424 21.8403 21.3643 23.0432C19.8862 24.2462 18.136 25.0687 16.2666 25.4389C14.3972 25.8092 12.4656 25.7159 10.6406 25.1671C8.81563 24.6184 7.15285 23.631 5.79764 22.2911C4.44243 20.9513 3.43607 19.2999 2.86652 17.4813C2.29698 15.6627 2.18161 13.7323 2.53048 11.8588C2.87936 9.98528 3.68186 8.22577 4.86784 6.73407C6.05381 5.24238 7.58715 4.06391 9.33378 3.30171M24.779 9.5354C25.2461 10.6629 25.5326 11.855 25.6298 13.0677C25.6538 13.3673 25.6658 13.5171 25.6063 13.652C25.5566 13.7647 25.4582 13.8714 25.3498 13.93C25.2201 14 25.058 14 24.7338 14H14.9338C14.6071 14 14.4437 14 14.319 13.9365C14.2092 13.8805 14.12 13.7913 14.064 13.6815C14.0004 13.5568 14.0004 13.3934 14.0004 13.0667V3.26671C14.0004 2.94253 14.0005 2.78044 14.0705 2.65069C14.1291 2.5423 14.2357 2.44384 14.3485 2.39415C14.4834 2.33466 14.6332 2.34667 14.9328 2.37069C16.1455 2.46791 17.3375 2.7544 18.4651 3.22145C19.8806 3.80775 21.1667 4.66711 22.25 5.75046C23.3334 6.83381 24.1927 8.11993 24.779 9.5354Z" stroke="#932F19" stroke-width="2" stroke-linecap="round" stroke-linejoin="round"/>
</g>
</svg>
