<svg width="28" height="28" viewBox="0 0 28 28" fill="none" xmlns="http://www.w3.org/2000/svg">
<g id="mail-01">
<path id="Icon" d="M2.33333 8.16675L11.8591 14.8348C12.6304 15.3747 13.0161 15.6447 13.4356 15.7493C13.8062 15.8416 14.1938 15.8416 14.5644 15.7493C14.9839 15.6447 15.3696 15.3747 16.1409 14.8348L25.6667 8.16675M7.93333 23.3334H20.0667C22.0268 23.3334 23.0069 23.3334 23.7556 22.9519C24.4142 22.6164 24.9496 22.081 25.2852 21.4224C25.6667 20.6737 25.6667 19.6936 25.6667 17.7334V10.2667C25.6667 8.30656 25.6667 7.32647 25.2852 6.57778C24.9496 5.91921 24.4142 5.38378 23.7556 5.04823C23.0069 4.66675 22.0268 4.66675 20.0667 4.66675H7.93333C5.97314 4.66675 4.99305 4.66675 4.24436 5.04823C3.58579 5.38378 3.05036 5.91921 2.71481 6.57778C2.33333 7.32647 2.33333 8.30656 2.33333 10.2667V17.7334C2.33333 19.6936 2.33333 20.6737 2.71481 21.4224C3.05036 22.081 3.58579 22.6164 4.24436 22.9519C4.99305 23.3334 5.97314 23.3334 7.93333 23.3334Z" stroke="#932F19" stroke-width="2" stroke-linecap="round" stroke-linejoin="round"/>
</g>
</svg>
