<svg width="88" height="16" viewBox="0 0 88 16" fill="none" xmlns="http://www.w3.org/2000/svg">
<path d="M0.21701 0C29.1205 0 58.0239 0 87.8032 0C87.8032 5.28 87.8032 10.56 87.8032 16C58.8998 16 29.9963 16 0.21701 16C0.21701 10.72 0.21701 5.44 0.21701 0ZM1.11356 0.965517C1.11356 5.60828 1.11356 10.251 1.11356 15.0345C29.4253 15.0345 57.737 15.0345 86.9067 15.0345C86.9067 10.3917 86.9067 5.74897 86.9067 0.965517C58.5949 0.965517 30.2832 0.965517 1.11356 0.965517Z" fill="#A9A29D"/>
<path d="M49.3894 4.82751C49.7536 4.82751 50.1177 4.82751 50.4929 4.82751C50.9213 5.88526 51.3303 6.94985 51.7342 8.01717C51.7948 8.17702 51.8555 8.33686 51.9161 8.4967C52.0625 8.88278 52.2088 9.26892 52.3549 9.6551C52.4865 9.45776 52.5604 9.28835 52.6434 9.06738C52.6729 8.98931 52.7024 8.91125 52.7327 8.83082C52.7644 8.74634 52.796 8.66186 52.8285 8.57482C52.8617 8.48691 52.8948 8.39901 52.928 8.31113C53.0154 8.07947 53.1026 7.84772 53.1896 7.61593C53.3283 7.24644 53.4673 6.87704 53.6067 6.50777C53.655 6.3796 53.703 6.25134 53.7511 6.12308C53.9164 5.68437 54.0904 5.25364 54.286 4.82751C54.6501 4.82751 55.0142 4.82751 55.3894 4.82751C55.4525 5.60504 55.5154 6.38258 55.5782 7.16013C55.6074 7.52117 55.6366 7.8822 55.6659 8.24323C55.6942 8.59156 55.7223 8.9399 55.7504 9.28825C55.7612 9.42123 55.772 9.5542 55.7828 9.68717C55.7979 9.87325 55.8129 10.0593 55.8279 10.2454C55.8346 10.3281 55.8346 10.3281 55.8415 10.4124C55.86 10.6439 55.8722 10.8709 55.8722 11.1034C55.5763 11.1034 55.2805 11.1034 54.9756 11.1034C54.8604 10.0607 54.7808 9.01564 54.7035 7.9696C54.6992 7.9122 54.6949 7.85479 54.6904 7.79564C54.6824 7.68769 54.6744 7.57972 54.6666 7.47175C54.6418 7.14036 54.6054 6.81216 54.5618 6.48269C54.5388 6.54206 54.5388 6.54206 54.5153 6.60263C54.3531 7.02118 54.1908 7.43974 54.0285 7.85829C53.9683 8.01371 53.908 8.16913 53.8477 8.32455C53.4886 9.25102 53.1291 10.1774 52.7687 11.1034C52.4956 11.1034 52.2225 11.1034 51.9411 11.1034C51.9015 11.0002 51.8619 10.8969 51.8211 10.7906C51.6723 10.403 51.5235 10.0155 51.3746 9.62801C51.3105 9.46115 51.2464 9.29428 51.1824 9.1274C50.6737 7.80172 50.6737 7.80172 50.148 6.48269C50.1099 6.94627 50.0719 7.40986 50.034 7.87345C50.0211 8.03075 50.0082 8.18806 49.9952 8.34536C49.9765 8.57307 49.9579 8.80077 49.9393 9.02848C49.9332 9.10195 49.9272 9.17542 49.921 9.25111C49.883 9.71748 49.8486 10.1838 49.82 10.6509C49.8032 10.8275 49.8032 10.8275 49.7342 11.1034C49.4611 11.1034 49.188 11.1034 48.9067 11.1034C48.8939 10.4751 48.9437 9.85491 48.9948 9.22945C49.0039 9.11547 49.013 9.00148 49.0221 8.88749C49.0411 8.64982 49.0603 8.41217 49.0797 8.17453C49.1044 7.87063 49.1287 7.5667 49.1529 7.26276C49.1717 7.02786 49.1906 6.79298 49.2096 6.5581C49.2186 6.44604 49.2276 6.33396 49.2365 6.22189C49.2491 6.06529 49.2618 5.90872 49.2746 5.75215C49.2818 5.66326 49.289 5.57437 49.2965 5.48279C49.3183 5.26326 49.3531 5.04513 49.3894 4.82751Z" fill="#A9A29D"/>
<path d="M21.1136 4.82751C21.9411 4.82751 21.9411 4.82751 22.1462 4.98484C22.1937 5.0581 22.2413 5.13135 22.2903 5.20682C22.3313 5.26707 22.3313 5.26707 22.3732 5.32854C22.4315 5.41465 22.4885 5.5016 22.5445 5.58927C22.6595 5.76896 22.7815 5.94353 22.9033 6.11872C22.9992 6.25709 23.0938 6.39624 23.1884 6.53549C23.4299 6.8887 23.6809 7.23483 23.933 7.58053C24.3328 8.12992 24.7215 8.68591 25.1136 9.24131C25.1363 7.78476 25.1591 6.3282 25.1825 4.82751C25.4556 4.82751 25.7287 4.82751 26.0101 4.82751C26.0101 6.89855 26.0101 8.96958 26.0101 11.1034C25.3205 11.1034 25.3205 11.1034 25.1591 10.9913C25.1227 10.9373 25.0864 10.8832 25.0489 10.8275C25.0044 10.764 24.9598 10.7006 24.9139 10.6352C24.866 10.5621 24.8181 10.489 24.7687 10.4137C24.7127 10.3326 24.6564 10.2516 24.5998 10.1707C24.4722 9.98753 24.3459 9.80348 24.2205 9.61873C23.9938 9.28539 23.763 8.95501 23.5317 8.62493C23.4913 8.56734 23.451 8.50975 23.4094 8.45041C23.0987 8.00737 22.7869 7.56512 22.4743 7.12346C22.4424 7.07834 22.4105 7.03322 22.3776 6.98673C22.3498 6.94747 22.322 6.90822 22.2933 6.86777C22.2204 6.76342 22.1497 6.65757 22.0791 6.55165C22.0563 8.05372 22.0336 9.55579 22.0101 11.1034C21.7142 11.1034 21.4184 11.1034 21.1136 11.1034C21.1136 9.03234 21.1136 6.96131 21.1136 4.82751Z" fill="#A9A29D"/>
<path d="M5.32047 4.82751C7.89674 4.82751 7.89674 4.82751 8.46055 5.33667C8.82831 5.74506 8.86936 6.1625 8.85953 6.69147C8.80872 7.16885 8.5667 7.4822 8.21702 7.79303C8.27818 7.83001 8.33934 7.867 8.40236 7.9051C8.7487 8.13682 8.98355 8.42764 9.11357 8.82752C9.17303 9.43065 9.13756 9.9424 8.78652 10.4493C8.61227 10.641 8.45813 10.7324 8.22564 10.8448C8.15612 10.8793 8.0866 10.9137 8.01497 10.9493C7.19155 11.2803 6.11096 11.1034 5.32047 11.1034C5.32047 9.03234 5.32047 6.96131 5.32047 4.82751ZM6.14805 5.6551C6.14805 6.24683 6.14805 6.83855 6.14805 7.4482C7.02269 7.49774 7.02269 7.49774 7.76012 7.09907C7.96072 6.85989 7.96856 6.67132 7.96513 6.36712C7.92368 6.09002 7.80203 5.98045 7.59633 5.79303C7.29724 5.63319 7.00881 5.63886 6.67822 5.64648C6.50327 5.64933 6.32831 5.65217 6.14805 5.6551ZM6.14805 8.20683C6.14805 8.91234 6.14805 9.61786 6.14805 10.3448C7.08056 10.3922 7.08056 10.3922 7.90236 10.043C8.13743 9.80223 8.23696 9.62196 8.24288 9.28441C8.23457 8.96807 8.15414 8.79266 7.94115 8.55165C7.36725 8.09986 6.91322 8.20683 6.14805 8.20683Z" fill="#A9A29D"/>
<path d="M69.7343 4.82751C72.4583 4.82751 72.4583 4.82751 73.0966 5.42315C73.4718 5.82544 73.5588 6.24935 73.5441 6.7898C73.4916 7.34194 73.2681 7.78209 72.8377 8.13786C72.6573 8.23766 72.4731 8.32739 72.286 8.41372C72.7314 9.06891 73.1843 9.71722 73.6547 10.3548C73.6911 10.4046 73.7275 10.4543 73.765 10.5056C73.7973 10.5495 73.8297 10.5934 73.8631 10.6386C73.9411 10.7585 73.9411 10.7585 74.0101 10.9654C73.8897 11.0022 73.7689 11.0379 73.648 11.0732C73.5808 11.0932 73.5136 11.1132 73.4444 11.1338C73.1545 11.1917 73.1545 11.1917 72.9756 11.1034C72.8366 10.9412 72.8366 10.9412 72.6825 10.7154C72.6395 10.6539 72.6395 10.6539 72.5955 10.5912C72.3964 10.3055 72.2054 10.0148 72.015 9.72326C71.9672 9.65162 71.9195 9.57997 71.8704 9.50616C71.7749 9.36273 71.6809 9.21831 71.5884 9.0729C71.5439 9.00641 71.4994 8.93993 71.4535 8.87143C71.4146 8.81148 71.3756 8.75153 71.3355 8.68977C71.1478 8.49381 71.1478 8.49381 70.6308 8.48269C70.6308 9.34751 70.6308 10.2123 70.6308 11.1034C70.3349 11.1034 70.0391 11.1034 69.7343 11.1034C69.7343 9.03234 69.7343 6.96131 69.7343 4.82751ZM70.6308 5.6551C70.6308 6.33786 70.6308 7.02062 70.6308 7.72407C71.6375 7.78133 71.6375 7.78133 72.4196 7.33183C72.5868 7.06336 72.6521 6.86683 72.6308 6.55165C72.5301 6.23353 72.4173 5.99501 72.148 5.79303C71.5832 5.60774 71.5832 5.60774 70.6308 5.6551Z" fill="#A9A29D"/>
<path d="M39.5273 4.82751C39.8232 4.82751 40.1191 4.82751 40.4239 4.82751C40.4239 5.69234 40.4239 6.55717 40.4239 7.4482C41.448 7.4482 42.4722 7.4482 43.5273 7.4482C43.5273 6.58338 43.5273 5.71855 43.5273 4.82751C43.8232 4.82751 44.1191 4.82751 44.4239 4.82751C44.4239 6.89855 44.4239 8.96958 44.4239 11.1034C44.128 11.1034 43.8322 11.1034 43.5273 11.1034C43.5273 10.1703 43.5273 9.23717 43.5273 8.27579C42.5032 8.27579 41.4791 8.27579 40.4239 8.27579C40.4239 9.20889 40.4239 10.142 40.4239 11.1034C40.128 11.1034 39.8322 11.1034 39.5273 11.1034C39.5273 9.03234 39.5273 6.96131 39.5273 4.82751Z" fill="#A9A29D"/>
<path d="M78.0101 4.82731C78.3288 4.82731 78.6474 4.82731 78.9756 4.82731C78.9984 5.66938 79.0212 6.51145 79.0446 7.37904C79.6265 6.80179 79.6265 6.80179 80.1713 6.20117C80.3819 5.95786 80.6041 5.72521 80.8248 5.49111C80.8708 5.44212 80.9168 5.39314 80.9642 5.34267C81.4482 4.82785 81.4482 4.82785 81.7133 4.81384C81.8151 4.81476 81.9169 4.81641 82.0188 4.81869C82.0708 4.81931 82.1228 4.81994 82.1763 4.82058C82.3049 4.8222 82.4334 4.82468 82.5619 4.82731C82.3236 5.37412 81.8015 5.799 81.3824 6.21147C81.2105 6.38625 81.0523 6.57129 80.8927 6.75727C80.7175 6.95379 80.5301 7.13672 80.341 7.31977C80.3001 7.36209 80.2592 7.4044 80.217 7.448C80.1747 7.49174 80.1324 7.53548 80.0888 7.58055C79.9906 7.72244 79.9906 7.72244 80.046 7.89278C80.1649 8.09775 80.2994 8.23757 80.4713 8.40059C80.6761 8.59919 80.8766 8.79571 81.0619 9.01266C81.3409 9.33903 81.6362 9.65004 81.9309 9.96233C82.1311 10.1754 82.3294 10.3901 82.5228 10.6094C82.5739 10.6672 82.5739 10.6672 82.6261 10.7263C82.6998 10.8273 82.6998 10.8273 82.6998 10.9652C82.5793 11.002 82.4586 11.0377 82.3377 11.073C82.2705 11.093 82.2033 11.113 82.1341 11.1336C81.9384 11.1727 81.847 11.18 81.6653 11.1032C81.5497 11.0102 81.5497 11.0102 81.4369 10.892C81.374 10.8264 81.374 10.8264 81.31 10.7594C81.1467 10.5813 80.987 10.4006 80.8291 10.2177C80.5302 9.8733 80.222 9.53701 79.9161 9.19881C79.8632 9.14022 79.8103 9.08164 79.7558 9.02128C79.7086 8.96909 79.6614 8.91691 79.6128 8.86314C79.4206 8.64678 79.233 8.42636 79.0446 8.20662C79.0219 9.16249 78.9991 10.1183 78.9756 11.1032C78.657 11.1032 78.3384 11.1032 78.0101 11.1032C78.0101 9.03214 78.0101 6.96111 78.0101 4.82731Z" fill="#A9A29D"/>
<path d="M62.217 4.82751C62.5356 4.82751 62.8543 4.82751 63.1825 4.82751C63.7432 6.17695 64.2732 7.53769 64.7997 8.90077C64.8274 8.97259 64.8552 9.04441 64.8837 9.11841C64.9358 9.25329 64.9879 9.38819 65.0399 9.52312C65.0636 9.58477 65.0874 9.64642 65.1119 9.70994C65.1348 9.76934 65.1576 9.82873 65.1812 9.88993C65.2297 10.0133 65.2796 10.1362 65.3307 10.2585C65.356 10.3194 65.3813 10.3802 65.4074 10.4428C65.4419 10.524 65.4419 10.524 65.4771 10.6068C65.5274 10.7585 65.5274 10.7585 65.5274 11.0344C65.0836 11.1027 65.0836 11.1027 64.6308 11.1723C64.5324 10.9196 64.4341 10.6668 64.3362 10.4138C64.2864 10.2854 64.2363 10.1571 64.1863 10.0288C64.1552 9.9483 64.1241 9.86784 64.092 9.78495C64.0487 9.67335 64.0487 9.67335 64.0045 9.5595C63.9412 9.37924 63.9412 9.37924 63.9412 9.24131C63.1218 9.24131 62.3025 9.24131 61.4584 9.24131C61.3901 9.46889 61.3218 9.69648 61.2515 9.93096C61.1796 10.1414 61.1068 10.351 61.0317 10.5603C61.0129 10.6131 60.9941 10.6659 60.9747 10.7203C60.9292 10.848 60.8835 10.9757 60.8377 11.1034C60.5191 11.1034 60.2005 11.1034 59.8722 11.1034C59.9498 10.6379 59.9498 10.6379 60.0465 10.3941C60.0788 10.3117 60.0788 10.3117 60.1118 10.2277C60.1471 10.1396 60.1471 10.1396 60.1831 10.0498C60.2078 9.98715 60.2324 9.92453 60.2579 9.86001C60.3111 9.72519 60.3644 9.59044 60.418 9.45575C60.5594 9.1 60.6995 8.74375 60.8399 8.38759C60.8827 8.27907 60.8827 8.27907 60.9264 8.16835C61.2142 7.43853 61.4964 6.70657 61.7774 5.97407C61.8223 5.85706 61.8672 5.74006 61.9121 5.62306C62.0138 5.35792 62.1155 5.09273 62.217 4.82751ZM62.6308 6.06889C62.5127 6.38056 62.3948 6.69233 62.2772 7.0042C62.2372 7.11033 62.197 7.21643 62.1568 7.3225C62.0991 7.47477 62.0416 7.62716 61.9843 7.77956C61.9662 7.82712 61.9481 7.87468 61.9294 7.92369C61.8351 8.16212 61.8351 8.16212 61.8032 8.41372C62.395 8.41372 62.9867 8.41372 63.5963 8.41372C63.4277 7.84795 63.4277 7.84795 63.2335 7.29465C63.2061 7.22219 63.1788 7.14974 63.1506 7.07509C63.1088 6.96534 63.1088 6.96534 63.0662 6.85338C63.0375 6.77754 63.0088 6.70171 62.9793 6.62358C62.9093 6.43861 62.8391 6.25371 62.7687 6.06889C62.7232 6.06889 62.6777 6.06889 62.6308 6.06889Z" fill="#A9A29D"/>
<path d="M13.3894 4.82751C14.5046 4.82751 15.6198 4.82751 16.7687 4.82751C16.7687 5.12338 16.7687 5.41924 16.7687 5.72407C15.9494 5.72407 15.1301 5.72407 14.286 5.72407C14.286 6.29303 14.286 6.862 14.286 7.4482C14.9232 7.4482 15.5605 7.4482 16.217 7.4482C16.355 7.93096 16.355 7.93096 16.355 8.27579C15.6722 8.27579 14.9894 8.27579 14.286 8.27579C14.286 8.93579 14.286 9.59579 14.286 10.2758C15.1508 10.2758 16.0156 10.2758 16.9067 10.2758C16.9067 10.5489 16.9067 10.822 16.9067 11.1034C15.746 11.1034 14.5853 11.1034 13.3894 11.1034C13.3894 9.03234 13.3894 6.96131 13.3894 4.82751Z" fill="#A9A29D"/>
<path d="M33.3075 4.73692C33.3896 4.73735 33.3896 4.73735 33.4733 4.73779C34.1007 4.74987 34.5842 4.90748 35.1136 5.24123C35.068 5.55985 35.0225 5.87847 34.9756 6.20675C34.9099 6.1727 34.8442 6.13865 34.7765 6.10357C34.6892 6.05891 34.6018 6.01429 34.5144 5.96968C34.4713 5.94723 34.4281 5.92478 34.3836 5.90165C33.8543 5.63283 33.3037 5.56455 32.721 5.69732C32.2769 5.85124 31.984 6.08403 31.7342 6.48261C31.3599 7.27696 31.2806 8.12216 31.5273 8.96537C31.7361 9.48881 31.9805 9.88791 32.4886 10.1593C33.1112 10.4132 33.7867 10.3315 34.3948 10.0796C34.62 9.9721 34.8327 9.85582 35.0446 9.72399C35.1543 10.0601 35.1971 10.3314 35.1825 10.6895C34.2476 11.2235 33.3352 11.3651 32.2962 11.106C31.9697 10.9982 31.7217 10.8388 31.4584 10.6205C31.3937 10.5685 31.3937 10.5685 31.3277 10.5155C30.7895 10.0347 30.4716 9.30045 30.4088 8.58678C30.3611 7.50781 30.4341 6.5443 31.1136 5.65502C31.7078 5.01396 32.4402 4.73067 33.3075 4.73692Z" fill="#A9A29D"/>
</svg>
