<svg width="80" height="16" viewBox="0 0 80 16" fill="none" xmlns="http://www.w3.org/2000/svg">
<path d="M0 0H15.8979V16H0V0Z" fill="#FF5A00"/>
<path d="M44.4596 3.1662C44.5958 3.1662 44.6298 3.33641 44.6298 3.47258C44.6638 4.01726 44.6979 4.5279 44.6979 5.07258C44.7319 5.58322 44.7319 6.09386 44.7319 6.6045C45.0383 6.3662 45.3106 6.1279 45.6511 6.02577C46.1957 5.78748 46.8426 5.78748 47.3872 6.05982C47.966 6.3662 48.3404 6.91088 48.5447 7.4896C48.7149 8.06833 48.783 8.68109 48.7489 9.25982C48.6809 9.97471 48.5106 10.6556 48.1021 11.2343C47.8638 11.5747 47.5574 11.8471 47.1489 11.9832C46.5021 12.2215 45.8213 12.1194 45.2426 11.779C45.0723 11.6768 44.9021 11.5066 44.766 11.3705C44.6979 11.5747 44.6638 11.779 44.5957 11.9832C44.2894 11.9832 44.017 12.0173 43.7106 11.9492C43.8128 11.4726 43.8128 10.9619 43.8468 10.4853C43.8809 8.74918 43.8468 7.01301 43.8468 5.31088C43.8128 4.63003 43.8468 3.94918 43.7447 3.30237C43.9489 3.23428 44.2213 3.1662 44.4596 3.1662ZM46.7064 6.74067C46.434 6.67258 46.1617 6.67258 45.9234 6.70662C45.4468 6.77471 45.0723 7.11513 44.766 7.45556C44.766 7.55769 44.766 7.69386 44.766 7.79599V10.5534C44.766 10.6556 44.834 10.7236 44.9021 10.7577C45.3787 11.2002 46.0596 11.4045 46.6723 11.2683C46.9787 11.2002 47.2511 10.996 47.3872 10.7236C47.6255 10.3492 47.6936 9.90662 47.7277 9.46407C47.7617 9.12365 47.7957 8.78322 47.7617 8.47684C47.7617 8.10237 47.6596 7.69386 47.4553 7.35343C47.2851 7.01301 47.0128 6.80875 46.7064 6.74067ZM50.6213 3.4045C50.7915 3.33641 51.0298 3.33641 51.2 3.43854C51.3702 3.54067 51.5064 3.71088 51.5745 3.88109C51.6766 4.2896 51.3702 4.73216 50.9617 4.7662C50.6553 4.80024 50.3149 4.63003 50.2128 4.2896C50.0766 3.98322 50.2809 3.54067 50.6213 3.4045ZM22.4681 4.11939C22.9106 3.81301 23.4553 3.57471 24 3.57471C24.5787 3.57471 25.1575 3.60875 25.6681 3.84705C25.8723 3.94918 26.0766 4.05131 26.2809 4.18748C26.1447 4.42577 25.9745 4.59599 25.8043 4.80024C25.6 4.69811 25.3958 4.56194 25.1575 4.45982C24.6128 4.25556 23.966 4.22152 23.4213 4.45982C22.9447 4.63003 22.5702 5.0045 22.3319 5.44705C22.1957 5.78748 22.0596 6.1279 21.9915 6.46833C21.9234 6.80875 21.9234 7.14918 21.8894 7.4896C21.8894 7.93216 21.8553 8.40875 21.8894 8.85131C21.9575 9.49811 22.1957 10.1109 22.6043 10.5875C22.9787 11.03 23.5234 11.2683 24.1021 11.3364C24.4085 11.3364 24.6809 11.3364 24.9872 11.2683C25.3277 11.2002 25.634 10.996 25.9745 10.8598C26.1447 11.03 26.3149 11.2683 26.4851 11.4726C26.2468 11.6088 26.0085 11.7449 25.7362 11.8471C25.0553 12.1194 24.2723 12.1534 23.5575 12.0513C23.0128 11.9492 22.5362 11.6768 22.1277 11.3364C21.6511 10.9279 21.3106 10.3832 21.1064 9.8045C20.9702 9.39599 20.9021 8.98748 20.8681 8.57897C20.8681 8.27258 20.8 7.9662 20.8681 7.62577C20.8681 7.04705 20.9702 6.43428 21.2085 5.8896C21.4468 5.20875 21.8553 4.56194 22.4681 4.11939Z" fill="#FF5A00"/>
<path d="M4.69786 3.98274C4.76595 3.98274 4.83403 3.9487 4.90212 3.9487C5.24254 3.9487 5.58297 3.9487 5.92339 3.98274C5.99148 3.98274 5.99148 4.01678 6.02552 4.05082C6.53616 5.10614 7.0468 6.1955 7.59148 7.28487C7.6936 7.52316 7.79573 7.72742 7.9319 7.93167C8.03403 7.76146 8.13616 7.59125 8.23829 7.38699C8.81701 6.22955 9.39573 5.10614 9.97446 3.9487C10.3489 3.9487 10.7234 3.91465 11.1319 3.98274C11.0638 4.22104 10.9276 4.39125 10.8255 4.5955C10.0766 6.05933 9.29361 7.52316 8.51063 8.98699C8.47658 9.05508 8.47658 9.08912 8.47658 9.15721C8.47658 10.2125 8.47658 11.2678 8.47658 12.2891C8.10212 12.2891 7.72765 12.2891 7.35318 12.2891C7.35318 11.2678 7.35318 10.2466 7.35318 9.22529C7.35318 9.12316 7.35318 8.98699 7.28509 8.88487C6.5702 7.55721 5.88935 6.22955 5.17446 4.86785C5.03829 4.5955 4.86807 4.28912 4.69786 3.98274Z" fill="#FFFEFE"/>
<path d="M66.1106 4.45973C66.417 4.35761 66.7234 4.28952 67.0638 4.22144C66.9957 4.80016 66.9617 5.37888 66.9617 5.99165C67.4383 5.99165 67.9489 5.99165 68.4255 6.02569C68.3574 6.26399 68.2553 6.46824 68.1532 6.6725C67.7447 6.6725 67.3362 6.6725 66.8936 6.6725C66.8936 7.21718 66.8936 7.76186 66.8936 8.30654C66.8936 8.71505 66.9276 9.15761 66.8936 9.60016C66.8936 10.0768 66.8936 10.5874 66.9276 11.064C66.9276 11.2682 67.1319 11.4044 67.3021 11.4725C67.6085 11.5406 67.9149 11.5065 68.2213 11.4385C68.2893 11.6087 68.3234 11.8129 68.3234 11.9831C68.051 12.1193 67.7447 12.1533 67.4383 12.1874C67.0298 12.1874 66.5532 12.1193 66.2468 11.8129C66.0085 11.5746 66.0085 11.2002 65.9745 10.8938C65.9404 10.2129 65.9745 9.49803 65.9404 8.81718C65.9404 8.10229 65.9404 7.42144 65.9404 6.70654C65.6681 6.70654 65.3957 6.70654 65.1574 6.70654C65.1574 6.46824 65.1574 6.22995 65.1574 6.02569C65.4298 6.02569 65.6681 6.02569 65.9404 6.02569C66.0425 5.48101 66.0425 4.93633 66.1106 4.45973ZM30.0255 5.82144C30.2638 5.82144 30.5362 5.82144 30.7745 5.88952C31.3191 6.05973 31.7957 6.46824 32.0681 6.94484C32.3064 7.38739 32.4766 7.86399 32.5106 8.37463C32.5447 9.05548 32.5787 9.73633 32.3404 10.3831C32.1362 10.9959 31.7276 11.5406 31.1489 11.847C30.5702 12.1533 29.8893 12.1874 29.2766 12.0172C28.7319 11.881 28.2553 11.5065 27.9149 11.0299C27.5745 10.5193 27.4383 9.90654 27.4383 9.25973C27.4383 8.68101 27.4042 8.06824 27.6085 7.48952C27.7787 6.94484 28.1532 6.4342 28.6638 6.09378C28.9021 5.95761 29.1404 5.82144 29.4128 5.78739C29.617 5.82144 29.8213 5.82144 30.0255 5.82144ZM29.5489 6.60441C29.2425 6.6725 28.9362 6.87675 28.7659 7.1491C28.5276 7.55761 28.4596 8.0342 28.4596 8.5108C28.4255 8.85122 28.4596 9.19165 28.4936 9.53207C28.5617 9.94058 28.6298 10.3831 28.834 10.7576C29.0383 11.1661 29.4808 11.3363 29.9234 11.3704C30.3319 11.4044 30.7745 11.3023 31.0808 10.9619C31.3191 10.6895 31.4553 10.3831 31.4893 10.0087C31.5574 9.56612 31.5574 9.12356 31.5234 8.71505C31.5234 8.2725 31.4553 7.7959 31.2851 7.35335C31.183 7.08101 30.9787 6.87675 30.7404 6.74058C30.3659 6.53633 29.9574 6.50229 29.5489 6.60441ZM34.1787 6.02569C34.4511 5.92356 34.7234 5.85548 35.0298 5.82144C35.1319 6.09378 35.2 6.36612 35.234 6.6725C35.4383 6.57037 35.5745 6.40016 35.7787 6.29803C36.1872 5.99165 36.6979 5.82144 37.2085 5.82144C37.3106 5.82144 37.4468 5.85548 37.5489 5.92356C37.7191 6.02569 37.8893 6.09378 38.0596 6.22995C38.1957 6.36612 38.2979 6.57037 38.4 6.74058C38.6383 6.63846 38.8085 6.4342 39.0128 6.29803C39.3532 6.05973 39.7617 5.85548 40.2383 5.82144C40.6468 5.78739 41.0553 5.92356 41.3617 6.1959C41.4979 6.33207 41.634 6.46824 41.7021 6.63846C41.7702 6.80867 41.8042 6.97888 41.8042 7.18314C41.8723 8.13633 41.8383 9.12356 41.8723 10.0768C41.8723 10.7236 41.8723 11.3704 41.8723 12.0172C41.5659 12.0172 41.2255 12.0172 40.9191 12.0172C40.9191 11.064 40.9191 10.0768 40.9191 9.12356C40.9191 8.5108 40.9191 7.89803 40.8851 7.25122C40.851 7.04697 40.7489 6.87675 40.5787 6.74058C40.4085 6.63846 40.1702 6.63846 39.9319 6.63846C39.5574 6.6725 39.2511 6.9108 38.9447 7.1491C38.8085 7.25122 38.6723 7.38739 38.5362 7.48952C38.5021 7.52356 38.5021 7.59165 38.5021 7.62569C38.5021 9.08952 38.5021 10.5193 38.5021 11.9831C38.1957 11.9831 37.8553 11.9831 37.5489 11.9831V8.57888C37.5489 8.30654 37.5489 8.0342 37.5489 7.76186C37.5489 7.48952 37.5489 7.18314 37.4468 6.94484C37.2425 6.6725 36.8681 6.60441 36.5617 6.70654C36.0851 6.80867 35.6766 7.11505 35.3021 7.45548C35.234 7.48952 35.234 7.55761 35.234 7.62569C35.234 9.08952 35.234 10.5533 35.234 12.0172C34.9617 12.0172 34.6893 12.0172 34.417 12.0172C34.383 10.5193 34.417 9.02144 34.3489 7.52356C34.3489 7.18314 34.3489 6.84271 34.2808 6.50229C34.2468 6.33207 34.1787 6.16186 34.1787 6.02569ZM50.417 5.99165C50.7234 5.95761 51.0298 5.88952 51.3362 5.82144C51.3702 6.6725 51.3702 7.52356 51.3702 8.34058C51.3702 9.56612 51.3702 10.7576 51.3702 11.9831C51.0638 11.9831 50.7234 11.9831 50.417 11.9831C50.417 10.247 50.417 8.5108 50.417 6.77463C50.417 6.53633 50.383 6.22995 50.417 5.99165ZM62.6383 5.85548C63.2851 5.95761 63.8298 6.57037 63.8638 7.25122C63.8979 8.23846 63.8638 9.25973 63.8638 10.247V10.5534C63.8638 10.7576 63.8638 10.9619 63.9319 11.1321C63.9659 11.3363 64.1702 11.4385 64.3064 11.5406C64.1702 11.7108 64.0681 11.9491 63.8979 12.0853C63.7957 12.1874 63.6596 12.0853 63.5915 12.0172C63.3532 11.847 63.217 11.6087 63.0808 11.3363C62.8766 11.4385 62.7404 11.6427 62.5021 11.7448C62.1617 11.9831 61.7532 12.0853 61.3106 12.0853C60.9362 12.0853 60.5617 12.0172 60.2213 11.847C59.6766 11.5406 59.3702 10.9278 59.4042 10.3151C59.4042 9.73633 59.7106 9.15761 60.1532 8.81718C60.6979 8.40867 61.4128 8.2725 62.0936 8.20441C62.4 8.17037 62.7064 8.17037 63.0468 8.17037C63.0468 7.86399 63.0468 7.55761 62.9787 7.25122C62.9447 7.01292 62.8085 6.74058 62.5702 6.60441C62.2979 6.46824 61.9574 6.4342 61.6511 6.50229C61.0723 6.57037 60.5276 6.80867 60.051 7.1491C59.9149 6.97888 59.7787 6.80867 59.6766 6.60441C59.6085 6.50229 59.7106 6.4342 59.7787 6.40016C60.4255 6.05973 61.1064 5.75335 61.8553 5.75335H62.1617C62.3319 5.82144 62.4681 5.82144 62.6383 5.85548ZM62.2298 8.88527C61.9234 8.91931 61.6511 8.91931 61.3447 8.98739C61.0042 9.08952 60.6979 9.29378 60.4936 9.60016C60.3915 9.77037 60.3915 9.97463 60.3915 10.1789C60.3915 10.3831 60.3574 10.6214 60.4596 10.8257C60.5276 11.0299 60.6979 11.2342 60.9021 11.3023C61.1404 11.4044 61.4128 11.4044 61.6851 11.4044C61.9915 11.3704 62.2638 11.2002 62.5021 10.9959C62.7064 10.8257 62.9106 10.6214 62.9106 10.3491C62.9447 9.8725 62.9447 9.36186 62.9447 8.88527C62.7064 8.91931 62.4681 8.85122 62.2298 8.88527ZM72.5787 5.88952C73.1234 6.02569 73.6 6.36612 73.9404 6.80867C74.2127 7.18314 74.383 7.59165 74.451 8.0342C74.5191 8.44271 74.5532 8.88527 74.5191 9.32782C74.5191 10.0427 74.2808 10.7236 73.8723 11.2682C73.5319 11.7108 72.9872 11.9831 72.4766 12.0853C71.8298 12.1874 71.1149 12.0853 70.5362 11.6768C70.0596 11.3363 69.7532 10.7916 69.583 10.2129C69.4808 9.90654 69.4808 9.6342 69.4468 9.32782C69.4468 8.81718 69.4468 8.34058 69.5149 7.82995C69.651 7.28527 69.9234 6.74058 70.3319 6.33207C70.6383 6.02569 71.0468 5.85548 71.4553 5.78739C71.8638 5.78739 72.2383 5.82144 72.5787 5.88952ZM71.5574 6.60441C71.1149 6.6725 70.7404 7.01292 70.6042 7.42144C70.434 7.86399 70.434 8.34058 70.434 8.78314C70.434 9.22569 70.434 9.66824 70.5362 10.0768C70.6042 10.3831 70.6723 10.6555 70.8766 10.8938C71.0468 11.1321 71.3532 11.2682 71.6255 11.3023C71.7276 11.3363 71.8638 11.3363 71.9659 11.3363H72.0681H72.1702C72.4085 11.3023 72.6128 11.2342 72.817 11.1321C73.0553 10.9959 73.2255 10.7576 73.3276 10.4853C73.4298 10.1789 73.4638 9.83846 73.4979 9.53207C73.4979 9.15761 73.5319 8.78314 73.4979 8.37463C73.4638 7.96612 73.4298 7.55761 73.2255 7.21718C73.0553 6.94484 72.817 6.74058 72.5106 6.60441C72.2042 6.53633 71.8638 6.53633 71.5574 6.60441ZM76.1532 6.05973C76.4596 5.99165 76.7319 5.88952 77.0042 5.82144C77.1745 6.12782 77.1745 6.46824 77.2085 6.77463C77.3447 6.6725 77.4808 6.53633 77.617 6.40016C78.0255 5.99165 78.6383 5.75335 79.217 5.85548V5.92356C79.0808 6.1959 79.0127 6.50229 78.8766 6.80867C78.8766 6.87675 78.7745 6.84271 78.7404 6.84271C78.5021 6.84271 78.1957 6.84271 77.9915 6.97888C77.7532 7.11505 77.583 7.28527 77.4128 7.48952C77.2425 7.69378 77.2766 7.96612 77.2766 8.20441C77.2766 8.54484 77.2425 8.88527 77.2766 9.22569C77.2766 10.1448 77.2766 11.098 77.2766 12.0172C76.9702 12.0172 76.6298 12.0172 76.3234 12.0172C76.3234 10.9959 76.3234 9.94058 76.3234 8.91931C76.3234 8.20441 76.3234 7.52356 76.2893 6.80867C76.2553 6.53633 76.1872 6.29803 76.1532 6.05973ZM53.2085 6.05973C53.4808 5.95761 53.7872 5.85548 54.0596 5.85548C54.1617 6.12782 54.2298 6.4342 54.2638 6.70654C54.5021 6.53633 54.7404 6.33207 54.9787 6.1959C55.4893 5.88952 56.1021 5.68527 56.6468 5.88952C56.9872 5.99165 57.2936 6.1959 57.4979 6.50229C57.6681 6.70654 57.7021 7.01292 57.7362 7.25122C57.8042 8.20441 57.7702 9.12356 57.7702 10.0768C57.7702 10.7236 57.7702 11.3363 57.7702 11.9491C57.4638 11.9491 57.1234 11.9491 56.817 11.9491C56.817 10.9278 56.783 9.8725 56.783 8.85122C56.783 8.2725 56.783 7.69378 56.7149 7.11505C56.6128 6.84271 56.3745 6.60441 56.0681 6.60441C55.8638 6.60441 55.6255 6.60441 55.4213 6.6725C54.9787 6.84271 54.5702 7.11505 54.1957 7.42144C54.1957 8.91931 54.1957 10.4512 54.1957 11.9491C53.9234 11.9491 53.6511 11.9491 53.3787 11.9491C53.3787 11.098 53.3447 10.247 53.3447 9.36186C53.3447 8.47675 53.3447 7.59165 53.2766 6.70654C53.3447 6.53633 53.2766 6.29803 53.2085 6.05973Z" fill="#FF5A00"/>
</svg>
