<svg width="127" height="24" viewBox="0 0 127 24" fill="none" xmlns="http://www.w3.org/2000/svg">
<g clip-path="url(#clip0_7133_2765)">
<path d="M0 0H12V12L0 24V0Z" fill="#FDFDFC"/>
<path d="M12 12L24 0V24H12V12Z" fill="#FDFDFC"/>
<path d="M123 20.5H126.5V3H123V20.5Z" fill="#FDFDFC"/>
<path d="M114 20.75C115.8 20.75 117 20 117.5 19V20.5H121V12.475C121 9.5 118.75 7.75 115.5 7.75C112 7.75 110 9.75 110 12.25H113C113 11.25 114 10.25 115.5 10.25C117 10.25 117.5 10.95 117.5 12C117.5 12.5 117.2 13 116.5 13H114.5C111.75 13 110 14.5 110 17C110 19.25 111.5 20.75 114 20.75ZM113 16.75C113 15.75 113.775 15.25 115 15.25H117.5V15.5C117.5 17.25 116.5 18.25 114.75 18.25C113.75 18.25 113 17.75 113 16.75Z" fill="#FDFDFC"/>
<path d="M107 11H109V8H107.5C106 8 105.25 8 104.5 9.5V8H101V20.5H104.5V14.5C104.5 12.25 105.25 11 107 11Z" fill="#FDFDFC"/>
<path d="M99.4903 14.4807C99.4903 10.5903 97.2106 7.75 93.4842 7.75C89.7578 7.75 87.5 10.5903 87.5 14.4807C87.5 18.3712 89.7687 20.75 93.4951 20.75C96.3886 20.75 98.5982 19.1831 99.3654 16.7377H95.9931C95.5109 17.6714 94.635 18.2423 93.4951 18.2423C91.8292 18.2423 90.7606 17.1672 90.4976 15.2331H99.4903C99.5122 14.9663 99.4903 14.6364 99.4903 14.4807ZM93.4951 10.2177C95.0295 10.2177 96.142 11.4199 96.4927 12.9761H90.4976C90.8702 11.3532 91.9826 10.2177 93.4951 10.2177Z" fill="#FDFDFC"/>
<path d="M66.5 20.5001H70V14.0001C70 12.25 70.75 11 72.25 11C73.75 11 74.5 12.2501 74.5 14.0001V20.5001L78 20.5V14C78 12.25 78.75 11 80.25 11C81.75 10.9999 82.5 12.2501 82.5 14.0001V20.5H86V13C86 10 83.5 8.00024 81 8.00012C78.5 8 77 9.50012 77 9.50012C77 9.50012 76 8.00012 73.5 8.00012C71.75 8.00012 70.75 8.50003 70 9.50012V8.00012H66.5V20.5001Z" fill="#FDFDFC"/>
<path d="M64.5 8H61V14C61 16 60 17.5 58.5 17.5C57 17.5 56 16.5 56 15V8H52.5V15.5C52.5 18.5 55 20.75 57.5 20.75C59.5 20.75 60.5 20 61 19V20.5H64.5V8Z" fill="#FDFDFC"/>
<path d="M36 20.5H39.5V9.5L47 20.5H50.5V3H47V14L39.5 3H36V20.5Z" fill="#FDFDFC"/>
</g>
<defs>
<clipPath id="clip0_7133_2765">
<rect width="127" height="24" fill="white"/>
</clipPath>
</defs>
</svg>
