<svg width="54" height="20" viewBox="0 0 54 20" fill="none" xmlns="http://www.w3.org/2000/svg">
<g clip-path="url(#clip0_8806_7278)">
<path d="M7.95406 14.1128C7.68894 16.0294 6.58794 16.7631 4.65215 16.7631C3.40527 16.7631 2.36817 16.6055 1.02121 16.3222C0.846582 16.286 0.676215 16.4042 0.651725 16.581L0.288632 19.2142C0.266271 19.3739 0.371686 19.523 0.529274 19.5581C1.64837 19.8041 2.82923 19.9426 4.18364 19.9426C8.64723 19.9426 10.8897 17.8225 11.338 14.1128L12.0109 8.75262L12.6934 5.11742C12.7754 4.69683 12.554 4.56587 12.1983 4.66915L10.2838 5.27076C9.76208 5.44325 9.49907 5.34317 9.15302 5.15044C8.42896 4.74687 7.48449 4.47217 6.48678 4.47217C3.57245 4.47217 1.26824 6.1226 0.739039 9.89409C0.270531 13.196 1.67712 15.0509 4.26562 15.0509C5.66902 15.0509 6.85519 14.4088 7.84013 13.6209C8.02008 13.4771 7.99133 13.8306 7.95406 14.1128ZM8.52586 10.1134C8.38637 11.0387 8.02966 11.6552 7.52602 11.8927C7.02237 12.1301 6.48039 12.2781 5.87559 12.2781C4.16341 12.2781 3.55221 11.3198 3.75559 9.85256C3.93874 8.56842 4.87682 7.69209 6.95529 7.67185C7.40037 7.65695 7.87953 7.6857 8.33951 7.75811C8.79951 7.83052 8.82613 7.93699 8.69409 8.92832L8.52478 10.1134H8.52586Z" fill="#79716B"/>
<path d="M19.5242 8.53434C19.5115 8.53434 19.4987 8.53436 19.4859 8.53542C17.9058 8.5993 16.7015 9.00713 16.5279 10.5788L15.9742 15.579C15.9348 15.9389 15.6303 16.2115 15.2672 16.2115H13.0333C12.601 16.2115 12.2688 15.8282 12.3294 15.4001L13.4379 7.58881L13.6242 5.20156C13.6455 4.92683 13.8745 4.71495 14.1502 4.71495H16.2724C16.4779 4.71495 16.6472 4.87467 16.6589 5.08016L16.759 6.83281C16.7728 7.06175 16.8921 7.02662 16.9453 6.94675C17.8621 5.56252 18.8843 4.5105 19.98 4.5105H19.9831C20.2429 4.5105 20.4421 4.7405 20.407 4.99818L19.9735 8.12867C19.9427 8.35546 19.7521 8.52583 19.5232 8.53328L19.5242 8.53434Z" fill="#79716B"/>
<path d="M35.7078 10.844L35.1935 15.5642C35.1531 15.9326 34.8933 16.2116 34.3864 16.2116H32.3919C31.7245 16.2116 31.6104 15.8208 31.6733 15.3831L32.7786 7.58995L32.9649 5.20801C32.9863 4.93011 33.2182 4.71607 33.4963 4.71607H35.4319C35.6917 4.71607 35.9068 4.92052 35.9196 5.18032L36.0017 6.89038C36.008 7.2045 36.1241 7.13528 36.1827 7.06607C37.5063 5.49019 38.9778 4.5127 40.5239 4.5127C42.3584 4.5127 43.6629 5.73615 43.1943 9.54703L42.4384 15.5759C42.3925 15.939 42.1317 16.2116 41.5672 16.2116H39.7561C38.9757 16.2116 38.8329 15.8144 38.9012 15.3736L39.7498 9.91332C39.9947 8.44605 39.4643 8.03823 38.6082 8.03823C38.1237 8.03823 37.6488 8.19475 37.1825 8.48224C36.351 8.99334 35.8143 9.87285 35.7088 10.844H35.7078Z" fill="#79716B"/>
<path d="M24.154 10.8655C23.9846 12.4222 24.2369 13.0685 25.6415 13.0685C27.1981 13.0685 27.5985 12.2018 27.785 10.7813L28.4748 5.20717C28.5089 4.91436 28.7581 4.69287 29.053 4.69287H31.5532C31.7928 4.69287 31.9748 4.90797 31.9354 5.14434L31.2922 10.3938C30.7685 15.0629 28.6867 16.4663 25.5232 16.4663C21.2099 16.4663 20.0769 14.3516 20.736 10.512L21.3844 5.20505C21.4195 4.91328 21.6677 4.69395 21.9626 4.69395H24.5895C24.8291 4.69395 25.0111 4.91009 24.9716 5.14648L24.155 10.8676" fill="#79716B"/>
<path d="M48.9825 9.24136C51.7542 9.52674 53.5079 10.4233 53.1405 13.0118C52.7944 15.3969 50.4093 16.4159 47.9432 16.4159C46.4185 16.4159 45.2174 16.269 44.0781 15.9868C43.7374 15.9027 43.5095 15.6929 43.567 15.2234L43.8823 13.0448C43.9205 12.7392 44.1111 12.6338 44.2921 12.6891C45.5348 13.0672 46.5644 13.3589 48.433 13.3589C49.5746 13.3589 50.0632 13.0735 50.125 12.6253C50.1858 12.1365 49.7172 11.8916 48.9634 11.749C45.8244 11.3209 44.2346 10.6895 44.6009 7.99876C44.947 5.55293 47.414 4.47217 49.7172 4.47217C51.0674 4.47217 52.1376 4.63934 53.0446 4.92895C53.3621 5.03011 53.576 5.1547 53.5164 5.67325L53.1991 8.04029C53.1715 8.24685 52.9521 8.36611 52.7636 8.27666C51.8948 7.86778 50.7619 7.52919 49.0454 7.52919C48.0466 7.52919 47.5983 7.7943 47.5164 8.30329C47.4344 8.85378 47.9848 9.07738 48.9836 9.24136H48.9825Z" fill="#79716B"/>
<path d="M24.2965 3.6352C25.358 3.6352 26.2184 2.82143 26.2184 1.8176C26.2184 0.813765 25.358 0 24.2965 0C23.2351 0 22.3745 0.813765 22.3745 1.8176C22.3745 2.82143 23.2351 3.6352 24.2965 3.6352Z" fill="#79716B"/>
<path d="M29.5977 3.6352C30.6593 3.6352 31.5197 2.82143 31.5197 1.8176C31.5197 0.813765 30.6593 0 29.5977 0C28.5364 0 27.6758 0.813765 27.6758 1.8176C27.6758 2.82143 28.5364 3.6352 29.5977 3.6352Z" fill="#79716B"/>
</g>
<defs>
<clipPath id="clip0_8806_7278">
<rect width="53.3333" height="20" fill="white" transform="translate(0.285645)"/>
</clipPath>
</defs>
</svg>
