<svg width="83" height="16" viewBox="0 0 83 16" fill="none" xmlns="http://www.w3.org/2000/svg">
<g clip-path="url(#clip0_8806_7264)">
<g clip-path="url(#clip1_8806_7264)">
<mask id="mask0_8806_7264" style="mask-type:luminance" maskUnits="userSpaceOnUse" x="0" y="0" width="82" height="16">
<path d="M81.3529 0.285645H0V15.6767H81.3529V0.285645Z" fill="white"/>
</mask>
<g mask="url(#mask0_8806_7264)">
<path d="M3.68287 0.505859L1.92389 10.0154C1.31834 9.82284 0.689834 9.71194 0.0549682 9.68552L0 11.2796C0.274841 11.2796 1.04439 11.3346 1.64905 11.5545L0.879494 15.4023H2.30867L2.85834 12.3241C3.463 12.5989 4.34249 12.8737 5.38689 12.8737L5.8816 15.4023H9.34457L6.48625 0.505859H3.68287ZM3.18816 10.73L4.06765 6.00268L5.05707 11.2796C4.39727 11.2598 3.75366 11.0705 3.18816 10.73Z" fill="#79716B"/>
<path d="M13.7966 15.6771C16.2702 15.6771 17.8643 14.7426 17.8643 11.5545V0.560828H16.3801V11.5545C16.3801 13.2585 16.0503 13.8632 14.841 13.8632C13.6318 13.8632 13.3569 13.3135 13.3569 11.6094V0.505859H9.729V11.5545C9.729 14.7976 11.378 15.6771 13.7966 15.6771Z" fill="#79716B"/>
<path d="M22.4825 9.68552H22.8123L24.1315 15.4572H27.7595L26.2203 8.80606C27.1548 8.03651 27.7045 6.8272 27.7045 5.12319C27.7045 1.27541 25.7806 0.505859 23.3071 0.505859H19.0195V15.4572H22.4825V9.68552ZM22.4825 1.8251H23.1971C23.8567 1.8251 24.1865 2.20987 24.1865 4.95829C24.1865 7.59676 23.9117 8.14644 23.1971 8.14644H22.4825V1.8251Z" fill="#79716B"/>
<path d="M28.968 15.4572H30.3972L30.9469 12.379C31.4966 12.6539 32.3761 12.9287 33.4755 12.9287L33.9152 15.4572H37.4881L34.6298 0.505859H31.8264L30.0125 10.0154C29.4246 9.82754 28.8149 9.71673 28.1984 9.68552L28.1436 11.3346C28.4184 11.3346 29.1329 11.3896 29.7376 11.6094L29.023 15.4572H28.968ZM32.1012 5.94771L33.1457 11.3346C32.4831 11.2865 31.8419 11.0791 31.2767 10.73L32.1012 5.94771Z" fill="#79716B"/>
<path d="M48.5374 7.5968C50.0765 7.21202 51.1758 6.22259 51.1758 4.24374C51.1758 0.835705 49.252 0.450928 46.6135 0.450928H42.9307V15.4023H46.6135C49.252 15.4023 51.2858 14.4678 51.2858 11.3346C51.2858 8.86108 50.1865 7.92661 48.5374 7.5968ZM46.3387 1.77017H46.6135C47.493 1.77017 47.7128 2.04501 47.7128 4.51858C47.7128 6.88221 47.493 7.10209 46.6135 7.10209H46.2837V1.77017H46.3387ZM46.6685 14.083H46.2837V8.31138H46.6685C47.438 8.31138 47.7678 8.6412 47.7678 11.1697C47.7678 13.9182 47.548 14.083 46.6685 14.083Z" fill="#79716B"/>
<path d="M56.5633 0.285645C53.5401 0.285645 52.001 2.15456 52.001 7.98119C52.001 13.6979 53.5401 15.5668 56.5633 15.5668C59.5317 15.5668 61.0707 13.6979 61.0707 7.92623C61.0707 2.15456 59.5317 0.285645 56.6183 0.285645H56.5633ZM56.5633 14.3575C55.6839 14.3575 55.6289 13.8078 55.6289 7.92623C55.6289 1.98966 55.6289 1.49495 56.5633 1.49495C57.3879 1.49495 57.4978 2.04462 57.4978 7.92623C57.4978 13.8628 57.4428 14.3575 56.5633 14.3575Z" fill="#79716B"/>
<path d="M70.6893 5.06826C70.6893 1.22048 68.7654 0.450928 66.2918 0.450928H62.1143V15.4023H65.5773V9.63063H65.9071L67.1713 15.4023H70.7993L69.2602 8.75113C70.1946 7.98158 70.6893 6.82724 70.6893 5.06826ZM66.1819 8.09151H65.5223V1.77017H66.1819C66.8965 1.77017 67.2263 2.15494 67.2263 4.90336C67.2263 7.54183 66.8965 8.09151 66.1819 8.09151Z" fill="#79716B"/>
<path d="M77.3402 15.4573H80.8582L77.9449 0.450928H75.1415L73.3826 9.96043C72.777 9.76787 72.1485 9.65697 71.5137 9.63063V11.2797C71.7335 11.2797 72.5031 11.3346 73.0527 11.6095L72.3381 15.4573H73.7674L74.317 12.3241C74.9217 12.5989 75.8011 12.8737 76.8456 12.8737L77.3402 15.4573ZM74.5918 10.62L75.5263 5.89278L76.5157 11.2797C75.8469 11.2219 75.2038 10.9949 74.6468 10.62H74.5918Z" fill="#79716B"/>
</g>
</g>
</g>
<defs>
<clipPath id="clip0_8806_7264">
<rect width="82.0859" height="15.3911" fill="white" transform="translate(0 0.285645)"/>
</clipPath>
<clipPath id="clip1_8806_7264">
<rect width="82.0859" height="15.3911" fill="white" transform="translate(0 0.285645)"/>
</clipPath>
</defs>
</svg>
