<svg width="104" height="12" viewBox="0 0 104 12" fill="none" xmlns="http://www.w3.org/2000/svg">
<g clip-path="url(#clip0_8806_7322)">
<g clip-path="url(#clip1_8806_7322)">
<mask id="mask0_8806_7322" style="mask-type:luminance" maskUnits="userSpaceOnUse" x="0" y="0" width="104" height="12">
<path d="M103.847 0.726562H0.972168V11.2478H103.847V0.726562Z" fill="white"/>
</mask>
<g mask="url(#mask0_8806_7322)">
<path d="M0.972168 0.960449H4.88093L6.90271 3.49891L8.85709 0.960449H12.6647V11.0809H8.48647V6.13758H8.45272L6.63313 8.50903L4.77984 6.13758H4.74614V11.0809H0.972168V0.960449Z" fill="#79716B"/>
<path d="M13.9111 6.47158V0.960449H18.1232V6.20438C18.1232 7.13959 18.4264 7.80763 19.4037 7.80763C20.3471 7.80763 20.6504 7.20639 20.6504 6.20438V0.960449H24.4244V6.43818C24.4244 7.97463 24.02 8.97663 23.4809 9.61123C22.5374 10.7135 20.8526 11.2479 19.1341 11.2479C17.3482 11.2479 15.7645 10.6801 14.8546 9.64463C14.3492 9.04343 13.9111 8.14163 13.9111 6.47158Z" fill="#79716B"/>
<path d="M25.6382 11.0809V0.960449H29.9176C31.9057 0.960449 33.422 1.56166 34.4329 2.53029C35.3427 3.36531 35.9156 4.53434 35.9156 6.00398C35.9156 7.40684 35.3764 8.60923 34.4666 9.47763C33.422 10.4797 31.872 11.0809 29.9514 11.0809H25.6382ZM29.8165 7.77417H29.9176C30.6252 7.77417 31.1644 7.54037 31.5013 7.20639C31.7709 6.90578 31.9731 6.50498 31.9731 6.00398C31.9731 5.50296 31.8046 5.06875 31.5013 4.80154C31.1981 4.50094 30.7264 4.26713 29.9514 4.26713H29.8165V7.77417Z" fill="#79716B"/>
<path d="M36.9258 11.0809V0.960449H41.2053C43.1933 0.960449 44.7097 1.56166 45.7205 2.53029C46.6303 3.36531 47.2032 4.53434 47.2032 6.00398C47.2032 7.40684 46.664 8.60923 45.7543 9.47763C44.7097 10.4797 43.1596 11.0809 41.2389 11.0809H36.9258ZM41.1041 7.77417H41.2053C41.9129 7.77417 42.4521 7.54037 42.7889 7.20639C43.0585 6.90578 43.2607 6.50498 43.2607 6.00398C43.2607 5.50296 43.0922 5.06875 42.7889 4.80154C42.4857 4.50094 42.014 4.26713 41.2389 4.26713H41.1041V7.77417Z" fill="#79716B"/>
<path d="M49.7647 6.80559L46.0244 0.960449H50.7418L51.8875 3.26511H51.9212L53.1006 0.960449H57.6833L53.9766 6.67197V11.0809H49.7647V6.80559Z" fill="#79716B"/>
<path d="M60.8848 0.926514H64.9618C66.5119 0.926514 69.7468 1.09352 69.7468 3.49838C69.7468 4.3334 69.3421 5.13502 68.1965 5.53583V5.56923C69.6796 6.10364 70.0163 7.07224 70.0163 7.97412C70.0163 10.6461 67.152 11.0469 65.164 11.0469H60.8848V0.926514ZM65.2312 5.00141C65.7708 5.00141 66.0063 4.73421 66.0063 4.36679C66.0063 3.99939 65.7368 3.73218 65.2312 3.73218H65.0629V5.00141H65.2312ZM65.2651 8.30805C65.9391 8.30805 66.2425 7.97412 66.2425 7.53985C66.2425 7.10567 65.9052 6.77169 65.2651 6.77169H65.0968V8.34152H65.2651V8.30805Z" fill="#79716B"/>
<path d="M75.104 0.926514V11.0469H70.8916V0.926514H75.104Z" fill="#79716B"/>
<path d="M79.0458 4.3334H76.2153V0.926514H86.0885V4.36679H83.2581V11.0469H79.0458V4.3334Z" fill="#79716B"/>
<path d="M87.2002 0.926514H94.5454V4.3H91.4119V4.83441H93.9385V7.23929H91.4119V7.80712H94.7478V11.0136H87.2002V0.926514Z" fill="#79716B"/>
<path d="M95.7938 6.9057C97.175 7.77409 98.5234 8.10816 99.129 8.10816C99.5679 8.10816 99.6351 7.94116 99.6351 7.77409C99.6351 7.57376 99.5 7.50696 99.3313 7.44009C98.8258 7.3065 97.411 7.17293 96.3664 6.23769C95.8274 5.77008 95.457 5.10207 95.457 4.13344C95.457 2.096 97.0399 0.726562 99.6008 0.726562C100.848 0.726562 102.297 1.06057 103.24 1.52818V4.83486C101.926 4.16684 100.68 3.93304 100.141 3.93304C99.7359 3.93304 99.6351 4.10004 99.6351 4.23365C99.6351 4.43406 99.8031 4.53426 99.9719 4.56766C100.41 4.70126 101.791 4.86826 102.802 5.63648C103.476 6.20429 103.847 6.9057 103.847 7.80756C103.847 9.74482 102.263 11.1142 99.6008 11.1142C98.3211 11.1142 96.7711 10.8136 95.7938 10.2792V6.9057Z" fill="#79716B"/>
</g>
</g>
</g>
<defs>
<clipPath id="clip0_8806_7322">
<rect width="102.875" height="10.9733" fill="white" transform="translate(0.972168 0.5)"/>
</clipPath>
<clipPath id="clip1_8806_7322">
<rect width="102.875" height="10.9733" fill="white" transform="translate(0.972168 0.5)"/>
</clipPath>
</defs>
</svg>
