<svg width="46" height="18" viewBox="0 0 46 18" fill="none" xmlns="http://www.w3.org/2000/svg">
<g clip-path="url(#clip0_8806_7359)">
<path d="M6.09938 5.93893C4.41407 5.93893 2.60156 6.62336 1.73666 8.06629V0H0.0751953V17.5992H1.73666V15.6437C2.21942 16.3445 2.87184 16.9138 3.63408 17.2996C4.39632 17.6853 5.24399 17.8751 6.09938 17.8515C6.89326 17.8727 7.68303 17.7313 8.41937 17.4361C9.15564 17.141 9.82268 16.6984 10.3787 16.136C10.9348 15.5736 11.368 14.9036 11.6513 14.1677C11.9346 13.4317 12.0617 12.6458 12.025 11.859C12.0605 11.0757 11.9319 10.2938 11.6473 9.56243C11.3626 8.83108 10.9281 8.16625 10.3712 7.60992C9.81437 7.05358 9.1472 6.61782 8.4119 6.33021C7.67666 6.04259 6.88921 5.90936 6.09938 5.93893ZM6.09938 16.2051C5.51672 16.2341 4.93445 16.1411 4.39036 15.9323C3.84626 15.7236 3.3525 15.4036 2.94111 14.9934C2.52973 14.5831 2.2099 14.0916 2.0024 13.5508C1.7949 13.01 1.70436 12.432 1.73666 11.8542C1.72762 11.2859 1.83467 10.7215 2.05137 10.1953C2.26807 9.66898 2.58991 9.1917 2.99754 8.7921C3.40517 8.3925 3.89014 8.07889 4.42323 7.87008C4.95631 7.66135 5.52647 7.5618 6.09938 7.57745C6.66949 7.55502 7.23809 7.65062 7.76888 7.85825C8.2996 8.06587 8.78096 8.38094 9.18216 8.78331C9.58335 9.18568 9.89558 9.66655 10.099 10.1953C10.3024 10.7241 10.3924 11.289 10.3635 11.8542C10.3873 12.4217 10.2942 12.9879 10.0899 13.5184C9.88561 14.0489 9.57442 14.5326 9.1753 14.9398C8.77626 15.3469 8.29766 15.6692 7.76881 15.8868C7.23989 16.1043 6.67188 16.2127 6.09938 16.2051Z" fill="#79716B"/>
<path d="M23.2562 8.06594C22.3896 6.62297 20.5851 5.93854 18.8935 5.93854C18.1041 5.90923 17.3171 6.04249 16.5823 6.32989C15.8475 6.6173 15.1807 7.05261 14.6239 7.60839C14.0672 8.16418 13.6326 8.82838 13.3475 9.55904C13.0625 10.2898 12.9332 11.0711 12.9679 11.8538C12.9319 12.6405 13.0597 13.4261 13.3432 14.1616C13.6267 14.8972 14.06 15.567 14.6159 16.1292C15.1718 16.6913 15.8385 17.134 16.5744 17.4294C17.3104 17.7249 18.0998 17.8668 18.8935 17.8464C19.7492 17.8721 20.5976 17.6832 21.3602 17.2973C22.1228 16.9113 22.7749 16.3409 23.2562 15.6386V17.5941H24.9176V6.1828H23.2562V8.06594ZM18.8935 16.2048C18.3209 16.2125 17.7527 16.1044 17.2237 15.8869C16.6947 15.6694 16.216 15.3472 15.8168 14.94C15.4177 14.5327 15.1065 14.0489 14.9023 13.5183C14.6981 12.9877 14.6052 12.4213 14.6293 11.8538C14.6003 11.2886 14.6903 10.7236 14.8938 10.1949C15.0972 9.66614 15.4095 9.18526 15.8107 8.78289C16.2119 8.38052 16.6932 8.06545 17.224 7.85783C17.7548 7.65021 18.3233 7.5546 18.8935 7.57703C19.4663 7.56152 20.0364 7.66121 20.5695 7.87001C21.1025 8.07881 21.5874 8.39243 21.995 8.79196C22.4026 9.19156 22.7244 9.66884 22.9412 10.195C23.1579 10.7212 23.265 11.2854 23.2562 11.8538C23.2883 12.4316 23.1977 13.0095 22.9901 13.5503C22.7826 14.091 22.4628 14.5824 22.0514 14.9927C21.6401 15.4029 21.1464 15.7228 20.6023 15.9317C20.0583 16.1405 19.4761 16.2335 18.8935 16.2048Z" fill="#79716B"/>
<path d="M42.7807 6.18298V8.06594C41.9126 6.62297 40.1033 5.93854 38.4165 5.93854C37.6271 5.90923 36.8401 6.04249 36.1053 6.32989C35.3705 6.6173 34.7037 7.05261 34.1469 7.60839C33.5902 8.16418 33.1555 8.82838 32.8705 9.55904C32.5855 10.2898 32.4562 11.0711 32.4908 11.8538C32.4549 12.6405 32.5827 13.4261 32.8662 14.1616C33.1497 14.8972 33.5829 15.567 34.1388 16.1292C34.6947 16.6913 35.3615 17.134 36.0974 17.4294C36.8334 17.7249 37.6228 17.8668 38.4165 17.8464C39.2724 17.8721 40.1211 17.6833 40.8839 17.2974C41.6467 16.9114 42.2991 16.341 42.7807 15.6386V17.5941H44.4422V6.1828L42.7807 6.18298ZM38.4165 16.2048C37.8439 16.2124 37.2758 16.1042 36.7468 15.8867C36.2179 15.6691 35.7392 15.3469 35.3402 14.9397C34.9411 14.5324 34.6298 14.0487 34.4256 13.5181C34.2213 12.9876 34.1284 12.4212 34.1523 11.8538C34.1234 11.2887 34.2136 10.7238 34.4171 10.1951C34.6205 9.66641 34.9328 9.18554 35.334 8.78317C35.7351 8.3808 36.2164 8.0658 36.7471 7.85811C37.2778 7.65048 37.8463 7.55474 38.4165 7.57703C38.9894 7.56152 39.5596 7.66115 40.0927 7.86988C40.6258 8.07868 41.1108 8.39222 41.5185 8.79182C41.9263 9.19135 42.2483 9.66863 42.4652 10.1949C42.6821 10.7211 42.7894 11.2854 42.7807 11.8538C42.8132 12.4318 42.7227 13.0101 42.5152 13.551C42.3077 14.092 41.9877 14.5837 41.5761 14.994C41.1645 15.4043 40.6705 15.7242 40.1262 15.9328C39.5817 16.1414 38.9992 16.2341 38.4165 16.2048Z" fill="#79716B"/>
<path d="M23.397 0L31.3433 17.5992H33.0864L25.1382 0H23.397Z" fill="#79716B"/>
</g>
<defs>
<clipPath id="clip0_8806_7359">
<rect width="45" height="18" fill="white" transform="translate(0.0751953)"/>
</clipPath>
</defs>
</svg>
