<svg width="23" height="26" viewBox="0 0 23 26" fill="none" xmlns="http://www.w3.org/2000/svg">
<path d="M16.5666 12.6286V6.46286C16.5666 6.29943 16.4329 6.16571 16.2695 6.16571C16.1061 6.16571 15.9723 6.29943 15.9723 6.46286V9.95429C15.9723 11.4326 14.7763 12.6286 13.2981 12.6286C11.8198 12.6286 10.6238 11.4326 10.6238 9.95429V6.46286C10.6238 6.29943 10.4901 6.16571 10.3266 6.16571C10.1632 6.16571 10.0295 6.29943 10.0295 6.46286V12.6286H7.65234V6.46286C7.65234 4.98457 8.84834 3.78857 10.3266 3.78857C11.8049 3.78857 13.0009 4.98457 13.0009 6.46286V9.95429C13.0009 10.1177 13.1346 10.2514 13.2981 10.2514C13.4615 10.2514 13.5952 10.1177 13.5952 9.95429V6.46286C13.5952 4.98457 14.7912 3.78857 16.2695 3.78857C17.7478 3.78857 18.9438 4.98457 18.9438 6.46286V12.6286H16.5666ZM6.35234 5.08857C6.35234 4.37543 5.76548 3.78857 5.05234 3.78857C4.3392 3.78857 3.75234 4.37543 3.75234 5.08857C3.75234 5.80171 4.3392 6.38857 5.05234 6.38857C5.76548 6.38857 6.35234 5.80171 6.35234 5.08857ZM6.24091 12.6286V7.13143H3.86377V12.6286H6.24091ZM22.7323 21.0229V4.97714C22.7323 2.236 20.4963 0 17.7552 0H5.05234C2.3112 0 0.0751953 2.236 0.0751953 4.97714V21.0229C0.0751953 23.764 2.3112 26 5.05234 26H12.1838V23.6229H5.05234C3.61862 23.6229 2.45234 22.4566 2.45234 21.0229V4.97714C2.45234 3.54343 3.61862 2.37714 5.05234 2.37714H17.7552C19.1889 2.37714 20.3552 3.54343 20.3552 4.97714V21.0229C20.3552 22.4566 19.1889 23.6229 17.7552 23.6229C16.3215 23.6229 15.1552 22.4566 15.1552 21.0229V16.0457C15.1552 14.5674 13.9592 13.3714 12.4809 13.3714C11.0026 13.3714 9.80662 14.5674 9.80662 16.0457V19.5371C9.80662 19.7006 9.67291 19.8343 9.50948 19.8343C9.34605 19.8343 9.21234 19.7006 9.21234 19.5371V16.0457C9.21234 14.5674 8.01634 13.3714 6.53805 13.3714C5.05977 13.3714 3.86377 14.5674 3.86377 16.0457V22.2114H6.24091V16.0457C6.24091 15.8823 6.37462 15.7486 6.53805 15.7486C6.70148 15.7486 6.8352 15.8823 6.8352 16.0457V19.5371C6.8352 21.0154 8.0312 22.2114 9.50948 22.2114C10.9878 22.2114 12.1838 21.0154 12.1838 19.5371V16.0457C12.1838 15.8823 12.3175 15.7486 12.4809 15.7486C12.6443 15.7486 12.7781 15.8823 12.7781 16.0457V21.0229C12.7781 23.764 15.0141 26 17.7552 26C20.4963 26 22.7323 23.764 22.7323 21.0229ZM19.0552 14.6714C19.0552 13.9583 18.4683 13.3714 17.7552 13.3714C17.0421 13.3714 16.4552 13.9583 16.4552 14.6714C16.4552 15.3846 17.0421 15.9714 17.7552 15.9714C18.4683 15.9714 19.0552 15.3846 19.0552 14.6714ZM18.9438 22.2114V16.7143H16.5666V22.2114H18.9438Z" fill="#79716B"/>
</svg>
