<svg width="42" height="16" viewBox="0 0 42 16" fill="none" xmlns="http://www.w3.org/2000/svg">
<path fill-rule="evenodd" clip-rule="evenodd" d="M12.503 14.3465C12.3433 13.9203 12.2155 13.4676 12.1835 13.0414C12.0557 12.056 12.1515 11.0439 12.3752 10.0851C12.6101 9.15501 12.9259 8.24745 13.2482 7.32105L13.3336 7.07548C13.6851 6.03676 14.0365 5.02468 14.4198 3.98595L14.6115 3.50654C14.8671 2.78743 15.1546 1.96178 14.8351 1.29593C14.5476 0.683356 13.8448 0.177314 13.0141 0.0441448C12.2474 -0.06239 10.682 -0.00912266 9.65966 0.57682C10.8737 1.88188 10.682 4.01256 10.2027 5.87696C10.1868 5.9302 10.1708 5.97684 10.1548 6.02344C10.1389 6.07004 10.1229 6.11664 10.1069 6.16992C9.94718 5.4508 9.6277 4.78496 9.05266 4.27892C7.29554 2.78743 4.16467 3.85278 2.66313 5.55732C1.1616 7.20864 0.330961 9.23281 0.203171 11.0972C0.0753804 12.8816 0.682384 15.1455 2.85482 15.7048C3.8452 15.9711 5.05922 15.8646 6.08154 15.3852C6.68854 15.1189 7.16774 14.746 7.61502 14.3198C7.74278 14.8525 8.1581 15.3319 8.70122 15.6249C8.98874 15.7847 9.30822 15.8913 9.65966 15.9445C10.4264 16.0511 12.1515 15.9978 13.1739 15.4118C13.078 15.4651 12.5349 14.4264 12.503 14.3465ZM7.5511 9.84537C7.39138 10.2449 7.1997 10.6444 6.9441 11.0172C6.62462 11.47 6.08154 12.1092 5.31478 12.056C4.13272 12.0027 4.54806 10.3248 4.83558 9.52577C5.21894 8.48705 5.88986 6.91564 7.26358 6.96892C8.57342 7.0222 7.83866 9.17953 7.5511 9.84537ZM25.2013 10.1468C25.1632 10.2664 25.1247 10.3872 25.0903 10.5112C24.7708 11.47 24.3236 12.4022 23.6527 13.2545C22.9498 14.1334 22.0234 14.9058 20.9371 15.3852C19.8829 15.8646 18.7327 16.0244 17.6465 15.9712C16.6242 15.9179 15.6019 15.6782 14.931 15.1189C13.6531 14.0535 13.3336 12.6952 13.3975 11.2037C13.4294 9.89865 13.9406 8.03429 14.9629 6.59605C16.5603 4.3588 19.8829 2.78743 22.5026 3.53317H22.5345C22.886 3.63971 25.8251 4.46536 26.9752 3.40001C26.9752 3.40001 27.0391 5.55732 25.282 6.0634C25.3778 6.35636 25.4418 6.62268 25.5056 6.91568C25.6334 7.74133 25.5695 8.62025 25.3778 9.49913C25.3368 9.72129 25.2696 9.93249 25.2013 10.1468ZM20.2662 11.2303C20.5218 10.8308 20.7135 10.4313 20.8732 10.0052C21.1288 9.28609 21.8636 7.04884 20.5538 7.0222C19.0522 6.96892 18.3813 8.62025 17.9979 9.71221C17.7104 10.5645 17.2631 12.2957 18.5411 12.349C19.3717 12.3756 19.9468 11.7097 20.2662 11.2303ZM27.8059 6.59605C29.5311 4.492 32.3744 3.21357 35.1538 3.40001C37.1026 3.53317 37.7736 4.62516 37.518 5.9302C37.3263 7.10208 36.3678 8.38053 34.9941 9.12629C33.7801 9.79213 32.3105 10.0052 31.0646 9.76549C30.809 10.8308 31.8952 11.763 33.205 11.7098C34.5149 11.6565 35.8248 10.7509 36.3359 9.68557C37.1346 11.6032 35.7289 14.24 33.269 15.3852C30.809 16.5305 27.7101 16.0244 26.528 14.2932C25.8891 13.361 25.7932 12.1892 25.921 11.0173C26.1127 9.49913 26.6878 7.95437 27.8059 6.59605ZM33.269 7.68805C33.6843 7.47497 34.0996 7.15536 34.2274 6.75585C34.2593 6.59605 34.2593 6.43624 34.2274 6.35636C34.1315 6.2498 33.9718 6.19656 33.812 6.16992C33.1412 6.09 32.5022 6.56944 32.0869 7.0222C31.7674 7.39508 31.5438 7.79457 31.384 8.19409C32.63 8.06093 33.269 7.68805 33.269 7.68805ZM39.9342 1.00293C40.062 1.53561 40.5091 1.96175 41.1483 2.14819L41.7871 2.33462L41.1483 2.52106C40.541 2.70749 40.062 3.13363 39.9342 3.66631L39.6786 4.65176L39.423 3.66631C39.2952 3.13363 38.848 2.70749 38.209 2.52106L37.57 2.33462L38.209 2.14819C38.816 1.96175 39.2952 1.53561 39.423 1.00293L39.6786 0.0174805L39.9342 1.00293Z" fill="#79716B"/>
</svg>
