<svg width="78" height="14" viewBox="0 0 78 14" fill="none" xmlns="http://www.w3.org/2000/svg">
<path fill-rule="evenodd" clip-rule="evenodd" d="M64.7041 0.0512695L70.2212 0.0630458C73.8913 0.0295534 76.8723 2.95542 76.8723 6.69552C76.8723 10.4356 73.8908 13.4641 70.2136 13.4641L64.7138 13.4354L64.7041 0.0512695ZM67.3092 10.5416H70.3504C72.4186 10.5416 74.0949 8.83219 74.0949 6.72277C74.0949 4.61327 72.4186 2.95911 70.352 2.97935L67.321 2.97237L67.3092 10.5416Z" fill="#79716B"/>
<path d="M48.5508 13.5126L55.3073 0L62.1727 13.5126H59.2306L55.3617 5.52122L51.3843 13.5126H48.5508Z" fill="#79716B"/>
<path d="M31.8999 13.5126V0L38.9833 5.37619L45.9213 0V13.5126H43.306V5.37619L38.9108 8.60903L34.5516 5.33975V13.5126H31.8999Z" fill="#79716B"/>
<path fill-rule="evenodd" clip-rule="evenodd" d="M29.2257 6.75859C29.2257 10.4762 26.2112 13.4945 22.4898 13.4945C18.7685 13.4945 15.7539 10.4762 15.7539 6.75859C15.7539 3.04097 18.7681 0.0227051 22.4898 0.0227051C26.2115 0.0227051 29.2257 3.03802 29.2257 6.75859ZM22.4898 2.54479C20.1636 2.54581 18.2785 4.43212 18.2789 6.75832C18.2789 9.08372 20.1644 10.9696 22.4907 10.9702C24.8179 10.9702 26.7038 9.08469 26.7044 6.75849C26.7044 4.43188 24.8182 2.54528 22.491 2.5448L22.4898 2.54479Z" fill="#79716B"/>
<path d="M13.13 13.4579L3.75824 5.82975V13.4579H1.03369V0.0541992L10.369 7.86417V0.0541992H13.13V13.4579Z" fill="#79716B"/>
</svg>
