<svg width="92" height="12" viewBox="0 0 92 12" fill="none" xmlns="http://www.w3.org/2000/svg">
<g clip-path="url(#clip0_8806_7317)">
<path fill-rule="evenodd" clip-rule="evenodd" d="M27.1508 0.514791C26.7525 0.56923 26.0668 0.777699 25.6441 0.972825C24.5501 1.47792 23.5332 2.32984 22.9441 3.23486C22.2903 4.23928 22.0425 5.60056 22.2693 6.94319C22.3753 7.57056 22.885 8.63818 23.4152 9.3429C24.0975 10.2498 25.296 11.0279 26.4753 11.3296C27.4437 11.5774 28.7304 11.5004 29.7779 11.132C31.5511 10.5086 32.7261 9.08949 33.0902 7.13148C33.1668 6.71948 33.1851 5.79917 33.1259 5.33326C32.9988 4.33164 32.6199 3.39191 32.0253 2.60315C31.838 2.3546 31.3115 1.8278 31.0594 1.6366C30.074 0.889282 28.8667 0.488495 27.6364 0.500251C27.4121 0.502384 27.1935 0.508939 27.1508 0.514791ZM5.91588 0.696028C5.38155 0.782564 4.88331 0.975244 4.46127 1.25857C4.09466 1.50465 3.53603 2.1396 3.17305 2.72277C2.92012 3.12907 2.43345 4.26877 2.18009 5.04809C1.88854 5.9448 1.64061 7.13457 1.49065 8.35679C1.44366 8.73984 1.43629 8.8861 1.45288 9.10752C1.49141 9.62178 1.6632 10.1273 1.91192 10.4582C2.18936 10.8272 2.73149 11.0972 3.61707 11.3075L3.92877 11.3815L5.27949 11.3768C6.58049 11.3722 7.49472 11.3484 8.70827 11.2874C9.0225 11.2717 9.28499 11.2537 9.2915 11.2476C9.30561 11.2343 9.9894 8.54953 9.98125 8.53942C9.97819 8.53558 9.77229 8.57296 9.52382 8.62266C8.61288 8.80474 8.15541 8.84839 7.1627 8.84808C6.75554 8.84792 6.23539 8.83507 6.0068 8.81955C5.61857 8.79306 5.57891 8.78538 5.40454 8.70339C4.87975 8.45657 4.75035 8.05361 4.9448 7.27193C5.00984 7.01053 6.06242 3.92357 6.1493 3.73942C6.25572 3.51387 6.4328 3.27533 6.54569 3.20546C6.79564 3.05079 6.64953 3.05949 9.22652 3.04532L11.5891 3.03232L11.8415 2.30404C11.9802 1.90348 12.1639 1.37387 12.2497 1.12709L12.4057 0.678419L9.19329 0.681957C7.42643 0.683907 5.9516 0.690228 5.91588 0.696028ZM13.958 0.723937C13.9504 0.748985 13.2308 3.10129 12.3588 5.95133C11.4868 8.80137 10.7733 11.1453 10.7733 11.16C10.7733 11.1782 11.263 11.1847 12.2957 11.1801L13.8181 11.1734L14.2865 9.64537L14.755 8.11725L15.7188 8.11744L16.6826 8.1176L17.2286 9.64552L17.7746 11.1734L19.2222 11.1801C20.1219 11.1843 20.6699 11.1776 20.6699 11.1622C20.6699 11.1486 20.4244 10.4536 20.1244 9.61778C19.8016 8.71852 19.5789 8.06021 19.5789 8.00557C19.5789 7.87539 19.6423 7.81008 20.1376 7.42978C20.6676 7.02286 20.8566 6.84792 21.1115 6.52834C21.6481 5.85564 21.9483 5.26129 22.0824 4.60592C22.2524 3.77521 22.2739 2.9764 22.1401 2.46145C22.0022 1.93027 21.781 1.60916 21.3122 1.25971C20.8395 0.907359 20.5644 0.787297 20.0724 0.718579C19.8273 0.684324 19.3571 0.678419 16.8783 0.678419C14.1327 0.678419 13.971 0.680942 13.958 0.723937ZM36.8655 0.69634C36.3017 0.769506 35.7181 0.992983 35.3335 1.28299C35.0826 1.47224 34.6236 1.93623 34.3495 2.27803C33.9253 2.80676 33.4696 3.54177 33.2131 4.11098C33.1018 4.35788 33.0938 4.38803 33.1318 4.41734C33.1977 4.46817 33.3423 4.45595 33.432 4.39199C33.4766 4.36015 33.648 4.21192 33.8126 4.06259C34.1364 3.76905 34.3676 3.58874 34.5206 3.51051L34.6175 3.46098L34.6335 3.52494C34.6424 3.56011 34.62 3.71531 34.5839 3.86981C34.4108 4.61 34.4309 5.1417 34.6576 5.81769C34.8993 6.53882 35.3703 6.93991 36.1028 7.04845C36.208 7.06404 36.8493 7.1003 37.5279 7.12898C38.2065 7.15769 38.8085 7.18735 38.8656 7.19484C38.9227 7.20235 39.0314 7.23856 39.1072 7.27529C39.3711 7.40331 39.4554 7.65873 39.3494 8.00859C39.2543 8.32195 39.0136 8.53479 38.6154 8.65754C38.4905 8.69602 38.2072 8.70135 35.9024 8.7088L33.3289 8.71719L33.06 9.88027C32.9121 10.5199 32.786 11.0639 32.7797 11.0889C32.7689 11.132 32.9146 11.1344 35.5702 11.1342C37.2317 11.1341 38.492 11.1233 38.6669 11.1078C39.5452 11.03 40.1341 10.7685 40.7448 10.185C41.0752 9.86938 41.4192 9.34972 41.7231 8.70637C42.1502 7.80272 42.3002 6.64661 42.0657 6.0653C41.8566 5.54686 41.5256 5.23843 41.0476 5.11662C40.7588 5.04306 40.4552 5.02405 39.0994 4.99466C37.5747 4.9616 37.6373 4.97062 37.4016 4.74986C37.1355 4.50063 37.098 4.21803 37.2806 3.83795C37.4614 3.46143 37.8473 3.15732 38.2499 3.07385C38.3439 3.05438 39.1317 3.04532 40.7313 3.04532H43.075L43.171 2.66167C43.2239 2.45066 43.3598 1.9181 43.473 1.47822L43.6789 0.678419L40.3112 0.682321C38.4589 0.684454 36.9084 0.690774 36.8655 0.69634ZM47.3076 0.716394C46.6786 0.831566 46.1754 1.05972 45.752 1.42171C45.2602 1.84231 44.5541 2.68971 44.0393 3.47745C43.7196 3.96657 43.6321 4.13513 43.6321 4.26159C43.6321 4.35255 43.6804 4.44986 43.7256 4.44986C43.788 4.44986 44.1009 4.24807 44.3812 4.02691C44.5704 3.87756 44.8271 3.69453 44.9515 3.62014C45.1697 3.48968 45.1778 3.48702 45.1852 3.54474C45.1893 3.57761 45.1679 3.72743 45.1375 3.87764C45.067 4.22679 45.041 4.86503 45.0859 5.14606C45.1294 5.41831 45.2938 5.91169 45.4282 6.17312C45.5805 6.46955 45.8143 6.6999 46.1044 6.83944C46.5283 7.04333 46.7064 7.06536 48.2297 7.10253C48.8797 7.11837 49.4628 7.14305 49.5254 7.15739C49.6836 7.19351 49.8117 7.26421 49.9158 7.37285C50.1221 7.58793 50.0148 7.97467 49.6476 8.33892C49.4502 8.53479 49.2697 8.63802 49.0402 8.68646C48.9443 8.70668 48.1459 8.71546 46.4144 8.71546H43.9263L43.6851 9.61935C43.5524 10.1164 43.4054 10.6669 43.3584 10.8426L43.2729 11.162L46.4461 11.1531C49.3532 11.1449 49.6335 11.1404 49.7882 11.0992C50.214 10.9858 50.5235 10.8556 50.7753 10.6836C50.954 10.5616 51.4327 10.0848 51.6601 9.80213C51.8897 9.51698 52.088 9.19209 52.3236 8.71546C52.7234 7.90683 52.843 7.34175 52.7765 6.57809C52.7428 6.19203 52.7034 6.0431 52.5637 5.7728C52.3648 5.38814 52.0056 5.12091 51.5415 5.01227C51.1506 4.92074 50.9959 4.91432 49.6311 4.93288C48.3296 4.9506 48.2888 4.94963 48.1752 4.89931C47.8011 4.7336 47.6391 4.37633 47.7483 3.95752C47.8685 3.49657 48.1496 3.21431 48.6045 3.09781C48.8029 3.04702 48.8872 3.04532 51.229 3.04532H53.6486L53.943 1.89438C54.1048 1.26135 54.2428 0.728827 54.2494 0.710932C54.2673 0.662891 47.571 0.668172 47.3076 0.716394ZM55.7916 0.762952C55.7768 0.809432 55.0625 3.15326 54.2044 5.97144C53.3462 8.78961 52.6389 11.1101 52.6326 11.1279C52.6235 11.1536 52.9581 11.1603 54.2503 11.1601L55.8794 11.1598L56.8405 7.77228C57.3691 5.90919 57.8319 4.32046 57.8689 4.24178C57.906 4.1631 57.956 4.08236 57.9801 4.06239C58.0184 4.03068 58.0319 4.03362 58.0873 4.08564C58.1221 4.11842 58.1676 4.19912 58.1884 4.26504C58.2093 4.33091 58.5282 5.91526 58.8972 7.78579L59.5679 11.1868L61.383 11.1801L63.1981 11.1734L64.8019 5.93243L66.4057 0.691424L64.8984 0.684714C64.0693 0.681021 63.3878 0.681228 63.3839 0.685182C63.3799 0.689135 63.0201 1.93303 62.5844 3.44938C62.1486 4.96577 61.7789 6.24134 61.7628 6.284C61.7241 6.38669 61.6094 6.50464 61.5485 6.50464C61.4719 6.50464 61.4031 6.45764 61.3614 6.37685C61.3403 6.33605 61.1356 5.27419 60.9064 4.01723C60.6474 2.59652 60.4644 1.658 60.4226 1.53675C60.2949 1.16572 60.136 0.958833 59.8833 0.834557C59.5733 0.682139 59.5326 0.679356 57.5893 0.678861L55.8185 0.678419L55.7916 0.762952ZM70.7633 0.696002C70.2218 0.764044 69.6007 0.975011 69.1579 1.2413C68.4647 1.65819 67.5931 2.55098 66.6604 3.79971C66.3777 4.17813 66.3258 4.27325 66.339 4.38856C66.3465 4.4537 66.3594 4.46385 66.4443 4.4709C66.5818 4.48231 66.6753 4.4292 67.0029 4.15322C67.3997 3.81893 67.5685 3.71942 67.9819 3.57592C68.1757 3.50869 68.383 3.49436 68.4333 3.54471C68.4913 3.60284 68.4649 3.69929 68.2564 4.19025C67.8061 5.25078 67.4798 6.15735 67.325 6.77774C67.1513 7.47364 67.0203 8.39379 67.0471 8.72847C67.1111 9.52623 67.4314 10.2941 67.8726 10.7074C68.1882 11.003 68.7654 11.274 69.2178 11.3389C69.8802 11.4339 72.4203 11.4709 73.3738 11.3994C74.0387 11.3496 74.8377 11.266 74.8565 11.2443C74.8752 11.2227 75.6632 8.44999 75.6532 8.44074C75.6496 8.43744 75.4776 8.47428 75.271 8.52257C74.8319 8.62525 74.3847 8.70229 73.9842 8.74415C73.6101 8.78326 72.0983 8.78201 71.4387 8.74203C70.9375 8.7117 70.9138 8.70778 70.7686 8.63073C70.5957 8.53903 70.4803 8.4068 70.4209 8.23217C70.3717 8.08766 70.3863 7.75512 70.4529 7.50602C70.5045 7.31275 70.6899 6.91906 70.7989 6.77124L70.8805 6.6607H72.7962H74.7121L75.03 5.70445C75.2049 5.17852 75.3479 4.73376 75.3479 4.71607C75.3479 4.69086 74.9312 4.68395 73.4128 4.68395C72.3484 4.68395 71.4776 4.67765 71.4776 4.66996C71.4776 4.62982 71.6671 4.17327 71.7635 3.98134C71.9835 3.54289 72.2019 3.29343 72.5093 3.12936L72.6667 3.04532H74.9117H77.1565L77.5381 1.88138C77.7479 1.2412 77.9196 0.708643 77.9195 0.697927C77.9195 0.678758 70.9155 0.676885 70.7633 0.696002ZM81.543 0.69634C80.9277 0.776165 80.3194 1.00994 79.8938 1.33007C79.6305 1.52775 79.1708 1.98357 78.924 2.29106C78.5336 2.77734 78.1238 3.45313 77.8763 4.0184C77.7274 4.35849 77.7176 4.40081 77.7763 4.44957C77.8612 4.52014 77.9759 4.44546 78.5553 3.94266C78.9384 3.61028 79.2676 3.38171 79.4745 3.3041C79.9244 3.13568 80.5789 3.04314 81.3235 3.0429C81.7389 3.04278 81.8541 3.05057 81.9176 3.08311C82.0132 3.13269 82.0383 3.23943 81.9984 3.42005C81.9827 3.49022 81.4152 5.25796 80.7364 7.34835C80.0584 9.43868 79.5043 11.1575 79.5043 11.1678C79.5043 11.178 80.2434 11.1864 81.1471 11.1864L82.79 11.1863L83.827 7.68153C84.3976 5.75391 84.94 3.92217 85.0325 3.61104L85.1994 3.04532H86.4927H87.786L88.1685 1.89438C88.3785 1.26135 88.5564 0.728827 88.5627 0.710932C88.5721 0.685 87.8698 0.6792 85.0983 0.682321C83.1858 0.684454 81.5861 0.690774 81.543 0.69634ZM27.0426 0.971031C26.8378 1.33153 26.6748 1.76741 26.5734 2.22601C26.5379 2.38641 26.5276 2.54731 26.5286 2.92828C26.5297 3.36165 26.5384 3.4626 26.599 3.74866C26.7191 4.31432 26.9509 4.98303 27.2725 5.69149L27.4288 6.03576L27.2842 6.25071C27.0485 6.60088 26.5202 7.23292 26.4631 7.23292C26.4318 7.23292 26.1069 6.74716 25.9166 6.41581C25.5219 5.72838 25.2466 5.01 25.119 4.33497C25.0622 4.0342 25.0555 3.07022 25.1078 2.7202C25.1547 2.40571 25.2592 1.90112 25.3211 1.68971C25.3638 1.5439 25.3869 1.50741 25.4713 1.45149C25.7022 1.29847 26.0277 1.14238 26.3195 1.0448C26.5866 0.955477 27.0595 0.816428 27.1168 0.810368C27.1268 0.809327 27.0934 0.881635 27.0426 0.971031ZM89.5049 0.938519V1.04256H89.6216H89.7384V1.49773V1.9529H89.8811H90.0237V1.49773V1.04256H90.1405H90.2581V0.938519V0.834479H89.8811H89.5049V0.938519ZM90.3357 1.3937V1.9529H90.465H90.5936L90.6014 1.64729L90.6085 1.34167L90.7378 1.64851L90.8663 1.95532L90.9714 1.94763L91.0756 1.9399L91.1932 1.65853L91.31 1.37715L91.317 1.66503L91.3249 1.9529H91.4534H91.5827V1.39234V0.831748L91.4495 0.839629L91.3162 0.847484L91.1469 1.23113C91.0537 1.44215 90.9706 1.61464 90.962 1.61449C90.9533 1.61434 90.8648 1.43876 90.766 1.22434L90.5857 0.834479H90.4611H90.3357V1.3937ZM28.1248 0.912535C28.6389 0.977898 29.345 1.14808 29.7466 1.30344C30.3717 1.5452 30.96 1.94939 31.3806 2.42608C31.5453 2.61288 31.6957 2.81123 31.6724 2.81123C31.664 2.81123 31.5171 2.75232 31.3462 2.6803C29.9969 2.11204 28.9214 1.89535 27.6507 1.93587C27.3686 1.94484 27.1377 1.94573 27.1377 1.93779C27.1377 1.88448 27.5248 1.17916 27.6321 1.03699C27.7468 0.884912 27.7729 0.863767 27.8339 0.87339C27.8725 0.879476 28.0034 0.897085 28.1248 0.912535ZM24.8663 2.00604C24.7158 2.4813 24.6445 3.25067 24.694 3.86464C24.7673 4.77184 24.9265 5.3799 25.28 6.10148C25.4964 6.54311 25.6422 6.78643 25.9436 7.20792L26.1531 7.501L26.0675 7.5905C25.9322 7.73182 25.5062 8.04341 25.3017 8.15057C25.1227 8.24432 24.7986 8.37733 24.7492 8.37733C24.6923 8.37733 24.2612 7.58691 24.0256 7.05085C23.5951 6.07064 23.3774 5.12539 23.2581 3.71715C23.246 3.5741 23.2502 3.56211 23.3987 3.31824C23.7205 2.78972 23.9926 2.46948 24.3714 2.17365C24.5707 2.01796 24.908 1.79227 24.9213 1.80566C24.9248 1.8092 24.9001 1.89935 24.8663 2.00604ZM28.5274 2.31814C29.574 2.4073 30.4665 2.6468 31.6476 3.15545L32.0144 3.31343L32.1453 3.53701C32.5146 4.16788 32.6894 4.66996 32.7347 5.23016C32.7434 5.33745 32.7568 5.4771 32.7647 5.54051L32.7789 5.65576L32.5332 5.42283C31.963 4.88251 31.2439 4.4708 30.3327 4.16312C29.6422 3.92997 29.135 3.86227 28.2547 3.88573C27.7616 3.89884 27.56 3.91556 27.2505 3.96898C27.1696 3.98293 27.1678 3.98098 27.1394 3.84809C27.0297 3.33572 27.0038 2.89363 27.0607 2.504L27.0917 2.29104L27.6537 2.29129C27.9628 2.29145 28.356 2.30352 28.5274 2.31814ZM18.7629 2.46281C18.9097 2.54895 19.086 2.72022 19.1785 2.86643C19.4442 3.28693 19.3932 3.88924 19.0305 4.61185C18.8834 4.90495 18.7493 5.09686 18.5301 5.32792C18.3054 5.56495 18.114 5.71516 17.8608 5.85338L17.6698 5.9577L16.4795 5.95807C15.4586 5.95838 15.2904 5.95313 15.2976 5.92111C15.3022 5.90056 15.5572 5.09886 15.8644 4.13953L16.4229 2.39531L17.5353 2.39518L18.6476 2.39507L18.7629 2.46281ZM23.0747 4.93104C23.1725 5.63974 23.3136 6.23299 23.5163 6.78739C23.6413 7.12937 24.0067 7.86361 24.2168 8.19529C24.312 8.3455 24.3952 8.48165 24.4017 8.49788C24.42 8.54365 23.747 8.56991 23.4622 8.53456C23.1569 8.49662 23.1547 8.49568 23.1149 8.39692C22.8856 7.82618 22.705 7.23071 22.6002 6.69972C22.5287 6.33701 22.5363 5.51778 22.6146 5.15212C22.6795 4.84898 22.7925 4.49239 22.8988 4.25478L22.9687 4.09873L22.9894 4.28079C23.0008 4.38093 23.0392 4.67354 23.0747 4.93104ZM29.0729 4.32032C30.3753 4.44109 31.2784 4.83645 32.3458 5.75304C32.4744 5.86347 32.631 6.00684 32.6939 6.07165L32.8082 6.18953L32.8086 6.56166C32.8088 6.80456 32.7936 7.01511 32.7647 7.16789C32.7126 7.44363 32.5428 8.09494 32.515 8.12545C32.5043 8.13713 32.4389 8.06708 32.3696 7.96978C32.039 7.50599 31.5747 7.02812 31.1351 6.69946C30.4188 6.16394 29.4652 5.87609 28.1992 5.81325L27.8449 5.79566L27.6614 5.41537C27.4597 4.99716 27.2465 4.4085 27.2835 4.37149C27.3475 4.30748 28.5602 4.27281 29.0729 4.32032ZM28.5998 6.31089C28.8993 6.35404 29.4535 6.47458 29.4834 6.50305C29.512 6.53049 29.4099 6.75342 29.2009 7.11957C28.5216 8.30913 27.7835 9.08322 26.852 9.58298C26.5504 9.74475 25.9734 9.97347 25.5662 10.0928C25.0297 10.2498 25.0567 10.25 24.775 10.089C24.4701 9.91476 24.1159 9.61872 23.8648 9.32816C23.7577 9.20416 23.6671 9.09451 23.6635 9.08456C23.6599 9.0746 23.7476 9.063 23.8583 9.05885C24.4573 9.03612 25.3329 8.70778 26.0337 8.24322C26.6351 7.84459 27.3365 7.13843 27.8582 6.4063L27.9767 6.24005L28.1612 6.25716C28.2626 6.26657 28.4599 6.29073 28.5998 6.31089ZM30.5275 6.90631C30.793 7.03251 31.1533 7.27612 31.2854 7.41889L31.342 7.48001L31.2116 7.7011C30.8676 8.28432 30.4068 8.91008 29.9591 9.40215C29.5706 9.82909 28.8761 10.4043 28.1722 10.8822C27.8904 11.0735 27.8305 11.1042 27.7566 11.0951C27.7091 11.0892 27.5262 11.0782 27.3502 11.0706C26.9668 11.0539 26.6031 10.9836 26.2638 10.8606C25.9764 10.7564 25.4903 10.5097 25.5201 10.4831C25.5312 10.4732 25.6143 10.4511 25.7047 10.434C26.1493 10.3495 26.8335 10.0525 27.36 9.71536C28.2311 9.15761 28.8517 8.52163 29.3656 7.65969C29.5468 7.35558 29.8652 6.72118 29.8652 6.66387C29.8652 6.62558 30.177 6.73972 30.5275 6.90631ZM31.7772 7.94169C31.9457 8.21383 32.1428 8.61607 32.167 8.73678C32.1863 8.83413 32.1108 8.93767 31.6887 9.39173C30.7307 10.4224 29.9643 10.8714 28.8697 11.0432C28.4148 11.1147 28.4102 11.1043 28.7804 10.8444C29.5436 10.3082 30.3206 9.60218 30.7225 9.07962C30.9723 8.75481 31.2738 8.29355 31.4504 7.96613C31.5285 7.82119 31.6006 7.70224 31.6104 7.70183C31.6202 7.70144 31.6953 7.80937 31.7772 7.94169Z" fill="#79716B"/>
<path fill-rule="evenodd" clip-rule="evenodd" d="M27.1508 0.514791C26.7525 0.56923 26.0668 0.777699 25.6441 0.972825C24.5501 1.47792 23.5332 2.32984 22.9441 3.23486C22.2903 4.23928 22.0425 5.60056 22.2693 6.94319C22.3753 7.57056 22.885 8.63818 23.4152 9.3429C24.0975 10.2498 25.296 11.0279 26.4753 11.3296C27.4437 11.5774 28.7304 11.5004 29.7779 11.132C31.5511 10.5086 32.7261 9.08949 33.0902 7.13148C33.1668 6.71948 33.1851 5.79917 33.1259 5.33326C32.9988 4.33164 32.6199 3.39191 32.0253 2.60315C31.838 2.3546 31.3115 1.8278 31.0594 1.6366C30.074 0.889282 28.8667 0.488495 27.6364 0.500251C27.4121 0.502384 27.1935 0.508939 27.1508 0.514791ZM5.91588 0.696028C5.38155 0.782564 4.88331 0.975244 4.46127 1.25857C4.09466 1.50465 3.53603 2.1396 3.17305 2.72277C2.92012 3.12907 2.43345 4.26877 2.18009 5.04809C1.88854 5.9448 1.64061 7.13457 1.49065 8.35679C1.44366 8.73984 1.43629 8.8861 1.45288 9.10752C1.49141 9.62178 1.6632 10.1273 1.91192 10.4582C2.18936 10.8272 2.73149 11.0972 3.61707 11.3075L3.92877 11.3815L5.27949 11.3768C6.58049 11.3722 7.49472 11.3484 8.70827 11.2874C9.0225 11.2717 9.28499 11.2537 9.2915 11.2476C9.30561 11.2343 9.9894 8.54953 9.98125 8.53942C9.97819 8.53558 9.77229 8.57296 9.52382 8.62266C8.61288 8.80474 8.15541 8.84839 7.1627 8.84808C6.75554 8.84792 6.23539 8.83507 6.0068 8.81955C5.61857 8.79306 5.57891 8.78538 5.40454 8.70339C4.87975 8.45657 4.75035 8.05361 4.9448 7.27193C5.00984 7.01053 6.06242 3.92357 6.1493 3.73942C6.25572 3.51387 6.4328 3.27533 6.54569 3.20546C6.79564 3.05079 6.64953 3.05949 9.22652 3.04532L11.5891 3.03232L11.8415 2.30404C11.9802 1.90348 12.1639 1.37387 12.2497 1.12709L12.4057 0.678419L9.19329 0.681957C7.42643 0.683907 5.9516 0.690228 5.91588 0.696028ZM13.958 0.723937C13.9504 0.748985 13.2308 3.10129 12.3588 5.95133C11.4868 8.80137 10.7733 11.1453 10.7733 11.16C10.7733 11.1782 11.263 11.1847 12.2957 11.1801L13.8181 11.1734L14.2865 9.64537L14.755 8.11725L15.7188 8.11744L16.6826 8.1176L17.2286 9.64552L17.7746 11.1734L19.2222 11.1801C20.1219 11.1843 20.6699 11.1776 20.6699 11.1622C20.6699 11.1486 20.4244 10.4536 20.1244 9.61778C19.8016 8.71852 19.5789 8.06021 19.5789 8.00557C19.5789 7.87539 19.6423 7.81008 20.1376 7.42978C20.6676 7.02286 20.8566 6.84792 21.1115 6.52834C21.6481 5.85564 21.9483 5.26129 22.0824 4.60592C22.2524 3.77521 22.2739 2.9764 22.1401 2.46145C22.0022 1.93027 21.781 1.60916 21.3122 1.25971C20.8395 0.907359 20.5644 0.787297 20.0724 0.718579C19.8273 0.684324 19.3571 0.678419 16.8783 0.678419C14.1327 0.678419 13.971 0.680942 13.958 0.723937ZM36.8655 0.69634C36.3017 0.769506 35.7181 0.992983 35.3335 1.28299C35.0826 1.47224 34.6236 1.93623 34.3495 2.27803C33.9253 2.80676 33.4696 3.54177 33.2131 4.11098C33.1018 4.35788 33.0938 4.38803 33.1318 4.41734C33.1977 4.46817 33.3423 4.45595 33.432 4.39199C33.4766 4.36015 33.648 4.21192 33.8126 4.06259C34.1364 3.76905 34.3676 3.58874 34.5206 3.51051L34.6175 3.46098L34.6335 3.52494C34.6424 3.56011 34.62 3.71531 34.5839 3.86981C34.4108 4.61 34.4309 5.1417 34.6576 5.81769C34.8993 6.53882 35.3703 6.93991 36.1028 7.04845C36.208 7.06404 36.8493 7.1003 37.5279 7.12898C38.2065 7.15769 38.8085 7.18735 38.8656 7.19484C38.9227 7.20235 39.0314 7.23856 39.1072 7.27529C39.3711 7.40331 39.4554 7.65873 39.3494 8.00859C39.2543 8.32195 39.0136 8.53479 38.6154 8.65754C38.4905 8.69602 38.2072 8.70135 35.9024 8.7088L33.3289 8.71719L33.06 9.88027C32.9121 10.5199 32.786 11.0639 32.7797 11.0889C32.7689 11.132 32.9146 11.1344 35.5702 11.1342C37.2317 11.1341 38.492 11.1233 38.6669 11.1078C39.5452 11.03 40.1341 10.7685 40.7448 10.185C41.0752 9.86938 41.4192 9.34972 41.7231 8.70637C42.1502 7.80272 42.3002 6.64661 42.0657 6.0653C41.8566 5.54686 41.5256 5.23843 41.0476 5.11662C40.7588 5.04306 40.4552 5.02405 39.0994 4.99466C37.5747 4.9616 37.6373 4.97062 37.4016 4.74986C37.1355 4.50063 37.098 4.21803 37.2806 3.83795C37.4614 3.46143 37.8473 3.15732 38.2499 3.07385C38.3439 3.05438 39.1317 3.04532 40.7313 3.04532H43.075L43.171 2.66167C43.2239 2.45066 43.3598 1.9181 43.473 1.47822L43.6789 0.678419L40.3112 0.682321C38.4589 0.684454 36.9084 0.690774 36.8655 0.69634ZM47.3076 0.716394C46.6786 0.831566 46.1754 1.05972 45.752 1.42171C45.2602 1.84231 44.5541 2.68971 44.0393 3.47745C43.7196 3.96657 43.6321 4.13513 43.6321 4.26159C43.6321 4.35255 43.6804 4.44986 43.7256 4.44986C43.788 4.44986 44.1009 4.24807 44.3812 4.02691C44.5704 3.87756 44.8271 3.69453 44.9515 3.62014C45.1697 3.48968 45.1778 3.48702 45.1852 3.54474C45.1893 3.57761 45.1679 3.72743 45.1375 3.87764C45.067 4.22679 45.041 4.86503 45.0859 5.14606C45.1294 5.41831 45.2938 5.91169 45.4282 6.17312C45.5805 6.46955 45.8143 6.6999 46.1044 6.83944C46.5283 7.04333 46.7064 7.06536 48.2297 7.10253C48.8797 7.11837 49.4628 7.14305 49.5254 7.15739C49.6836 7.19351 49.8117 7.26421 49.9158 7.37285C50.1221 7.58793 50.0148 7.97467 49.6476 8.33892C49.4502 8.53479 49.2697 8.63802 49.0402 8.68646C48.9443 8.70668 48.1459 8.71546 46.4144 8.71546H43.9263L43.6851 9.61935C43.5524 10.1164 43.4054 10.6669 43.3584 10.8426L43.2729 11.162L46.4461 11.1531C49.3532 11.1449 49.6335 11.1404 49.7882 11.0992C50.214 10.9858 50.5235 10.8556 50.7753 10.6836C50.954 10.5616 51.4327 10.0848 51.6601 9.80213C51.8897 9.51698 52.088 9.19209 52.3236 8.71546C52.7234 7.90683 52.843 7.34175 52.7765 6.57809C52.7428 6.19203 52.7034 6.0431 52.5637 5.7728C52.3648 5.38814 52.0056 5.12091 51.5415 5.01227C51.1506 4.92074 50.9959 4.91432 49.6311 4.93288C48.3296 4.9506 48.2888 4.94963 48.1752 4.89931C47.8011 4.7336 47.6391 4.37633 47.7483 3.95752C47.8685 3.49657 48.1496 3.21431 48.6045 3.09781C48.8029 3.04702 48.8872 3.04532 51.229 3.04532H53.6486L53.943 1.89438C54.1048 1.26135 54.2428 0.728827 54.2494 0.710932C54.2673 0.662891 47.571 0.668172 47.3076 0.716394ZM55.7916 0.762952C55.7768 0.809432 55.0625 3.15326 54.2044 5.97144C53.3462 8.78961 52.6389 11.1101 52.6326 11.1279C52.6235 11.1536 52.9581 11.1603 54.2503 11.1601L55.8794 11.1598L56.8405 7.77228C57.3691 5.90919 57.8319 4.32046 57.8689 4.24178C57.906 4.1631 57.956 4.08236 57.9801 4.06239C58.0184 4.03068 58.0319 4.03362 58.0873 4.08564C58.1221 4.11842 58.1676 4.19912 58.1884 4.26504C58.2093 4.33091 58.5282 5.91526 58.8972 7.78579L59.5679 11.1868L61.383 11.1801L63.1981 11.1734L64.8019 5.93243L66.4057 0.691424L64.8984 0.684714C64.0693 0.681021 63.3878 0.681228 63.3839 0.685182C63.3799 0.689135 63.0201 1.93303 62.5844 3.44938C62.1486 4.96577 61.7789 6.24134 61.7628 6.284C61.7241 6.38669 61.6094 6.50464 61.5485 6.50464C61.4719 6.50464 61.4031 6.45764 61.3614 6.37685C61.3403 6.33605 61.1356 5.27419 60.9064 4.01723C60.6474 2.59652 60.4644 1.658 60.4226 1.53675C60.2949 1.16572 60.136 0.958833 59.8833 0.834557C59.5733 0.682139 59.5326 0.679356 57.5893 0.678861L55.8185 0.678419L55.7916 0.762952ZM70.7633 0.696002C70.2218 0.764044 69.6007 0.975011 69.1579 1.2413C68.4647 1.65819 67.5931 2.55098 66.6604 3.79971C66.3777 4.17813 66.3258 4.27325 66.339 4.38856C66.3465 4.4537 66.3594 4.46385 66.4443 4.4709C66.5818 4.48231 66.6753 4.4292 67.0029 4.15322C67.3997 3.81893 67.5685 3.71942 67.9819 3.57592C68.1757 3.50869 68.383 3.49436 68.4333 3.54471C68.4913 3.60284 68.4649 3.69929 68.2564 4.19025C67.8061 5.25078 67.4798 6.15735 67.325 6.77774C67.1513 7.47364 67.0203 8.39379 67.0471 8.72847C67.1111 9.52623 67.4314 10.2941 67.8726 10.7074C68.1882 11.003 68.7654 11.274 69.2178 11.3389C69.8802 11.4339 72.4203 11.4709 73.3738 11.3994C74.0387 11.3496 74.8377 11.266 74.8565 11.2443C74.8752 11.2227 75.6632 8.44999 75.6532 8.44074C75.6496 8.43744 75.4776 8.47428 75.271 8.52257C74.8319 8.62525 74.3847 8.70229 73.9842 8.74415C73.6101 8.78326 72.0983 8.78201 71.4387 8.74203C70.9375 8.7117 70.9138 8.70778 70.7686 8.63073C70.5957 8.53903 70.4803 8.4068 70.4209 8.23217C70.3717 8.08766 70.3863 7.75512 70.4529 7.50602C70.5045 7.31275 70.6899 6.91906 70.7989 6.77124L70.8805 6.6607H72.7962H74.7121L75.03 5.70445C75.2049 5.17852 75.3479 4.73376 75.3479 4.71607C75.3479 4.69086 74.9312 4.68395 73.4128 4.68395C72.3484 4.68395 71.4776 4.67765 71.4776 4.66996C71.4776 4.62982 71.6671 4.17327 71.7635 3.98134C71.9835 3.54289 72.2019 3.29343 72.5093 3.12936L72.6667 3.04532H74.9117H77.1565L77.5381 1.88138C77.7479 1.2412 77.9196 0.708643 77.9195 0.697927C77.9195 0.678758 70.9155 0.676885 70.7633 0.696002ZM81.543 0.69634C80.9277 0.776165 80.3194 1.00994 79.8938 1.33007C79.6305 1.52775 79.1708 1.98357 78.924 2.29106C78.5336 2.77734 78.1238 3.45313 77.8763 4.0184C77.7274 4.35849 77.7176 4.40081 77.7763 4.44957C77.8612 4.52014 77.9759 4.44546 78.5553 3.94266C78.9384 3.61028 79.2676 3.38171 79.4745 3.3041C79.9244 3.13568 80.5789 3.04314 81.3235 3.0429C81.7389 3.04278 81.8541 3.05057 81.9176 3.08311C82.0132 3.13269 82.0383 3.23943 81.9984 3.42005C81.9827 3.49022 81.4152 5.25796 80.7364 7.34835C80.0584 9.43868 79.5043 11.1575 79.5043 11.1678C79.5043 11.178 80.2434 11.1864 81.1471 11.1864L82.79 11.1863L83.827 7.68153C84.3976 5.75391 84.94 3.92217 85.0325 3.61104L85.1994 3.04532H86.4927H87.786L88.1685 1.89438C88.3785 1.26135 88.5564 0.728827 88.5627 0.710932C88.5721 0.685 87.8698 0.6792 85.0983 0.682321C83.1858 0.684454 81.5861 0.690774 81.543 0.69634ZM27.09 0.893001C26.8374 1.30429 26.6376 1.85615 26.5536 2.37531C26.4137 3.23881 26.6457 4.31245 27.2676 5.67914L27.4305 6.03698L27.332 6.18628C27.0489 6.61552 26.4989 7.25862 26.444 7.22462C26.4282 7.21486 26.3284 7.07522 26.2221 6.9143C25.5985 5.96995 25.1912 4.96486 25.0867 4.1124C25.007 3.46197 25.1022 2.45271 25.3149 1.6928C25.358 1.53878 25.3736 1.5162 25.4902 1.43887C25.6944 1.30344 25.9892 1.15833 26.2416 1.06906C26.4509 0.995038 27.0655 0.813853 27.1203 0.809978C27.1323 0.809146 27.1186 0.846521 27.09 0.893001ZM89.5049 0.938519V1.04256H89.6216H89.7384V1.49773V1.9529H89.8811H90.0237V1.49773V1.04256H90.1405H90.2581V0.938519V0.834479H89.8811H89.5049V0.938519ZM90.3357 1.3937V1.9529H90.465H90.5936L90.6014 1.64729L90.6085 1.34167L90.7378 1.64851L90.8663 1.95532L90.9714 1.94763L91.0756 1.9399L91.1932 1.65853L91.31 1.37715L91.317 1.66503L91.3249 1.9529H91.4534H91.5827V1.39234V0.831748L91.4495 0.839629L91.3162 0.847484L91.1469 1.23113C91.0537 1.44215 90.9706 1.61464 90.962 1.61449C90.9533 1.61434 90.8648 1.43876 90.766 1.22434L90.5857 0.834479H90.4611H90.3357V1.3937ZM28.2287 0.926398C29.5104 1.10337 30.425 1.49997 31.157 2.1962C31.352 2.38171 31.6923 2.78504 31.6714 2.806C31.6652 2.81209 31.5515 2.77037 31.4186 2.7133C30.6457 2.38153 29.8301 2.13203 29.1508 2.0196C28.6383 1.93475 27.8374 1.90351 27.339 1.94895C27.2283 1.95905 27.1377 1.95943 27.1377 1.94978C27.1377 1.91977 27.3256 1.53251 27.4328 1.34167C27.489 1.24153 27.5869 1.09195 27.6502 1.00927C27.7556 0.871621 27.7723 0.860047 27.8477 0.872037C27.8929 0.879242 28.0644 0.903691 28.2287 0.926398ZM24.8769 1.97566C24.5562 3.00745 24.6394 4.5391 25.0765 5.64631C25.282 6.1669 25.6342 6.79561 25.973 7.2468C26.0585 7.36075 26.1345 7.46792 26.1418 7.48492C26.1584 7.52376 26.0514 7.62341 25.7264 7.87169C25.4622 8.07353 25.1937 8.22262 24.9069 8.32666C24.7156 8.39606 24.7398 8.41033 24.5738 8.13026C23.861 6.92801 23.4671 5.72029 23.3099 4.25478C23.2291 3.50205 23.2186 3.61405 23.3977 3.32002C23.6554 2.8966 23.8374 2.66217 24.1085 2.40389C24.328 2.19472 24.8923 1.77658 24.9189 1.8033C24.9238 1.80813 24.9048 1.8857 24.8769 1.97566ZM28.891 2.35249C29.8196 2.47781 30.5331 2.68199 31.5522 3.11406L32.0137 3.30971L32.1314 3.50916C32.4258 4.00763 32.5909 4.40853 32.6801 4.84091C32.7228 5.0479 32.7836 5.61978 32.7648 5.63854C32.7587 5.64467 32.697 5.58896 32.6277 5.51468C32.2115 5.06881 31.4303 4.57886 30.6634 4.28287C30.0864 4.0602 29.654 3.95294 29.1248 3.90128C28.7317 3.86289 27.79 3.88547 27.4392 3.94168C27.2979 3.96433 27.1781 3.97871 27.173 3.97364C27.1486 3.94927 27.059 3.44431 27.0366 3.20572C27.0133 2.95676 27.029 2.62942 27.0766 2.37216L27.0928 2.28422L27.8491 2.2991C28.281 2.30757 28.7278 2.33047 28.891 2.35249ZM18.7629 2.46281C18.9097 2.54895 19.086 2.72022 19.1785 2.86643C19.4442 3.28693 19.3932 3.88924 19.0305 4.61185C18.8834 4.90495 18.7493 5.09686 18.5301 5.32792C18.3054 5.56495 18.114 5.71516 17.8608 5.85338L17.6698 5.9577L16.4795 5.95807C15.4586 5.95838 15.2904 5.95313 15.2976 5.92111C15.3022 5.90056 15.5572 5.09886 15.8644 4.13953L16.4229 2.39531L17.5353 2.39518L18.6476 2.39507L18.7629 2.46281ZM23.0621 4.84C23.242 6.18625 23.5947 7.20322 24.2363 8.22543C24.332 8.37788 24.4103 8.50838 24.4103 8.51536C24.4103 8.52233 24.2438 8.53605 24.0401 8.54592C23.7076 8.56199 23.2945 8.53613 23.1799 8.49208C23.109 8.46488 22.7922 7.56103 22.6701 7.03784C22.4453 6.07371 22.5221 5.09842 22.8874 4.28079L22.9687 4.09873L22.9884 4.26779C22.9993 4.36078 23.0324 4.61827 23.0621 4.84ZM29.4105 4.35518C30.0524 4.45303 30.5073 4.58862 30.9951 4.82752C31.4959 5.07282 32.1079 5.51151 32.5832 5.96595L32.795 6.16854L32.8126 6.39511C32.8433 6.79184 32.754 7.36343 32.5628 7.99381L32.5092 8.17024L32.4044 8.02021C31.9111 7.31477 31.2102 6.67311 30.5931 6.36193C29.9746 6.05004 29.1431 5.85879 28.209 5.81361L27.8387 5.79569L27.6855 5.4804C27.5307 5.16172 27.2676 4.48927 27.2676 4.41209C27.2676 4.38905 27.2822 4.36488 27.3001 4.35838C27.4896 4.28935 28.9641 4.28711 29.4105 4.35518ZM28.6183 6.31123C28.9809 6.36509 29.4792 6.48401 29.493 6.51999C29.5149 6.57713 29.1593 7.2292 28.8701 7.66208C28.0873 8.83389 27.2705 9.49237 26.0468 9.93812C25.729 10.0539 25.1368 10.2241 25.0518 10.2241C24.9664 10.2241 24.4819 9.91813 24.2511 9.7185C24.0694 9.56142 23.657 9.11434 23.657 9.07452C23.657 9.0681 23.7408 9.06057 23.8432 9.05783C24.4715 9.04098 25.434 8.66945 26.1374 8.17231C26.6971 7.77681 27.2774 7.18655 27.7981 6.48331L27.9776 6.24092L28.1746 6.25775C28.283 6.26702 28.4826 6.29107 28.6183 6.31123ZM30.0969 6.71556C30.4985 6.85666 30.9335 7.10657 31.2222 7.36211L31.3454 7.47119L31.2758 7.59266C30.8012 8.42051 30.1226 9.29328 29.5512 9.81083C29.202 10.1271 28.6568 10.554 28.2389 10.8384L27.852 11.1017L27.4364 11.079C26.935 11.0517 26.6787 11.0067 26.3263 10.8841C26.0635 10.7927 25.5013 10.5226 25.5013 10.4879C25.5013 10.4781 25.5773 10.4555 25.6704 10.4379C26.7195 10.2386 28.0939 9.3603 28.854 8.40335C29.18 7.99308 29.578 7.33084 29.7738 6.87302C29.8526 6.68879 29.8855 6.63718 29.9162 6.64972C29.9381 6.6587 30.0195 6.68832 30.0969 6.71556ZM31.7378 7.87666C31.9824 8.26335 32.1769 8.66773 32.1769 8.7893C32.1769 8.89958 31.3483 9.78982 30.9347 10.1239C30.3795 10.5724 29.7757 10.8632 29.1059 11.0046C28.8183 11.0654 28.4372 11.101 28.4755 11.0635C28.4897 11.0496 28.6241 10.9524 28.7742 10.8476C29.5135 10.331 30.2683 9.64764 30.6921 9.11128C30.9499 8.78506 31.2349 8.35413 31.4394 7.98154C31.5236 7.82819 31.6002 7.70237 31.6097 7.70193C31.6191 7.70146 31.6768 7.78011 31.7378 7.87666Z" fill="#79716B"/>
<path fill-rule="evenodd" clip-rule="evenodd" d="M27.1501 0.514791C26.752 0.56923 26.0663 0.777699 25.6436 0.972825C24.5495 1.47792 23.5326 2.32984 22.9435 3.23486C22.2898 4.23928 22.042 5.60056 22.2688 6.94319C22.3747 7.57056 22.8845 8.63818 23.4146 9.3429C24.097 10.2498 25.2953 11.0279 26.4748 11.3296C27.4432 11.5774 28.7298 11.5004 29.7774 11.132C31.5506 10.5086 32.7255 9.08949 33.0897 7.13148C33.1662 6.71948 33.1846 5.79917 33.1254 5.33326C32.9983 4.33164 32.6194 3.39191 32.0248 2.60315C31.8375 2.3546 31.3109 1.8278 31.0588 1.6366C30.0734 0.889282 28.8661 0.488495 27.6359 0.500251C27.4116 0.502384 27.193 0.508939 27.1501 0.514791ZM26.9692 1.13107C26.6111 1.84674 26.4603 2.59751 26.5377 3.27941C26.6172 3.98077 26.8915 4.86087 27.302 5.73241L27.4449 6.03571L27.2493 6.31571C27.069 6.57364 26.8788 6.8088 26.5807 7.14188C26.445 7.29357 26.482 7.31648 26.2154 6.91588C25.6755 6.10466 25.3005 5.2538 25.1369 4.46822C24.9831 3.73021 25.0289 2.82611 25.2696 1.84788L25.35 1.52176L25.4968 1.42745C25.7479 1.26617 25.9722 1.15414 26.2151 1.06867C26.4442 0.988016 27.0439 0.812995 27.1014 0.809978C27.1174 0.809146 27.0579 0.953631 26.9692 1.13107ZM28.384 0.9419C29.6214 1.14402 30.445 1.51446 31.1409 2.18187C31.3901 2.42079 31.7217 2.80707 31.698 2.83074C31.6939 2.8349 31.5631 2.78377 31.4075 2.71713C30.0203 2.12321 28.7602 1.87363 27.5375 1.95061C27.3112 1.96487 27.1222 1.97257 27.1174 1.96775C27.0936 1.94398 27.5187 1.16441 27.6339 1.0204L27.7661 0.855183L27.9127 0.872012C27.9934 0.881271 28.2055 0.912717 28.384 0.9419ZM24.9289 1.81635C24.9288 1.82707 24.9058 1.90877 24.8779 1.99788C24.7419 2.43219 24.7088 2.70839 24.7087 3.40946C24.7084 4.15152 24.7405 4.43873 24.89 5.03698C24.9935 5.45126 25.1111 5.75363 25.3543 6.23151C25.5243 6.56532 25.858 7.09592 26.084 7.39179L26.1756 7.51164L26.0265 7.64107C25.6252 7.98941 25.2898 8.19786 24.912 8.33374L24.7258 8.40068L24.6213 8.22441C24.1645 7.45452 23.8114 6.65274 23.605 5.91663C23.4575 5.39103 23.3088 4.49314 23.252 3.78629C23.2354 3.57959 23.236 3.57657 23.3333 3.40915C23.7256 2.73414 24.0866 2.33809 24.6627 1.9509C24.8879 1.7995 24.9296 1.77846 24.9289 1.81635ZM28.2136 2.2914C28.7557 2.31993 29.2775 2.38802 29.7347 2.48988C30.2718 2.6095 31.178 2.92698 31.8165 3.21927L32.0241 3.31426L32.1634 3.5514C32.5524 4.21322 32.717 4.72895 32.7637 5.43241L32.7805 5.68533L32.6136 5.51506C31.9116 4.79914 30.7059 4.18429 29.5871 3.9718C29.0256 3.86515 28.1896 3.85389 27.505 3.94375C27.3288 3.96691 27.178 3.97913 27.1697 3.97094C27.1396 3.94074 27.0604 3.51758 27.03 3.22377C27.0002 2.93696 27.0197 2.56473 27.0758 2.3506C27.0917 2.28955 27.0652 2.29356 27.6047 2.27048C27.669 2.26776 27.943 2.27715 28.2136 2.2914ZM23.0323 4.54333C23.1446 5.51762 23.3159 6.26072 23.5834 6.93277C23.7596 7.37595 24.1025 8.02833 24.3563 8.40335L24.4354 8.52037L24.2863 8.54146C24.1243 8.56434 23.3524 8.54718 23.2311 8.51802C23.1706 8.50352 23.1421 8.46856 23.0813 8.33434C22.9897 8.13193 22.7709 7.47949 22.6971 7.18872C22.4736 6.30746 22.4781 5.51395 22.7111 4.74258C22.7955 4.46284 22.9522 4.07399 22.9721 4.09407C22.9774 4.09932 23.0045 4.3015 23.0323 4.54333ZM29.278 4.33492C30.1594 4.43303 30.893 4.69823 31.6091 5.17761C32.1659 5.55031 32.7714 6.08903 32.8085 6.24454C32.8446 6.39641 32.8104 7.01383 32.75 7.29794C32.6864 7.59727 32.5293 8.15627 32.5089 8.15627C32.5013 8.15627 32.4074 8.03922 32.3004 7.89617C31.8415 7.28288 31.2696 6.75275 30.7348 6.44508C30.1158 6.089 29.238 5.872 28.2541 5.83182L27.8515 5.81538L27.6788 5.47095C27.5251 5.16425 27.3016 4.60683 27.2578 4.42034C27.2418 4.35281 27.2441 4.35154 27.4167 4.33203C27.9999 4.26612 28.6694 4.26717 29.278 4.33492ZM28.7285 6.32129C29.017 6.37089 29.4653 6.4715 29.507 6.49598C29.5538 6.52345 29.1273 7.29592 28.8058 7.76612C27.9588 9.00484 27.0133 9.68472 25.548 10.1088C25.0587 10.2503 25.0335 10.2503 24.7874 10.1082C24.6737 10.0425 24.4953 9.92338 24.3911 9.84336C24.211 9.70533 23.7887 9.28106 23.6822 9.13119L23.6325 9.06135L23.8986 9.04505C24.6572 8.99865 25.6666 8.55564 26.4489 7.92595C26.8621 7.59331 27.5384 6.85362 27.8566 6.38643L27.9554 6.24129L28.1892 6.25502C28.3178 6.26256 28.5604 6.2924 28.7285 6.32129ZM30.2028 6.75197C30.6843 6.94574 30.9394 7.09803 31.2403 7.3715L31.3498 7.47109L31.2281 7.68362C31.0359 8.01912 30.6411 8.59836 30.3918 8.91055C29.8247 9.62052 29.0921 10.2728 28.1431 10.9125L27.8373 11.1187L27.3898 11.0869C26.9036 11.0524 26.6913 11.0155 26.3711 10.9097C26.1299 10.8302 25.7469 10.656 25.5795 10.5499L25.4634 10.4764L25.7224 10.4175C26.4183 10.2594 27.1095 9.91735 27.8348 9.37221C28.6495 8.75982 29.2591 7.97534 29.7491 6.90876C29.8184 6.75803 29.8832 6.63469 29.8932 6.63469C29.9033 6.63469 30.0425 6.68747 30.2028 6.75197ZM31.7775 7.92868C31.9648 8.22949 32.0568 8.40743 32.1416 8.633L32.2041 8.79941L32.0989 8.93602C31.7385 9.40388 31.1095 10.0176 30.6631 10.3371C30.2297 10.6472 29.63 10.9068 29.0963 11.0153C28.8694 11.0614 28.435 11.1063 28.4374 11.0834C28.4382 11.0757 28.5941 10.9607 28.784 10.8279C29.9289 10.0272 30.6771 9.25323 31.2761 8.25027C31.3838 8.06982 31.4984 7.8666 31.5307 7.79864C31.5629 7.73067 31.5961 7.67508 31.6044 7.67508C31.6127 7.67508 31.6906 7.78919 31.7775 7.92868Z" fill="#79716B"/>
</g>
<defs>
<clipPath id="clip0_8806_7317">
<rect width="90.9215" height="10.9733" fill="white" transform="translate(0.829102 0.5)"/>
</clipPath>
</defs>
</svg>
