<svg width="37" height="26" viewBox="0 0 37 26" fill="none" xmlns="http://www.w3.org/2000/svg">
<g clip-path="url(#clip0_8806_7366)">
<path fill-rule="evenodd" clip-rule="evenodd" d="M10.5579 25.7222H12.0666L7.20562 13.7275H5.57961L0.735596 25.7222H2.17684L3.50105 22.3792H9.23373L10.5579 25.7222ZM6.35067 15.1723H6.40112L8.76446 21.1864H3.97061L6.35067 15.1723ZM13.1729 21.5056C13.1729 24.2102 14.7987 25.9238 17.1453 25.9238C19.0226 25.9238 20.2627 24.8654 20.5313 23.0511H19.2071C18.9725 24.1766 18.2853 24.7983 17.1453 24.7983C15.4858 24.7983 14.5473 23.4879 14.5473 21.5056C14.5473 19.5232 15.4858 18.1961 17.1453 18.1961C18.2853 18.1961 18.9725 18.8178 19.2071 19.9433H20.5313C20.2627 18.1458 19.0226 17.0706 17.1453 17.0706C14.7987 17.0706 13.1729 18.801 13.1729 21.5056ZM27.5041 17.1546C27.3029 17.1044 27.0682 17.0873 26.8503 17.0873C25.61 17.0873 24.5371 17.8768 24.1685 19.2713V17.2722H22.8275V25.7222H24.2186V21.5561C24.2186 19.4224 25.4422 18.3642 26.7832 18.3642C27.0008 18.3642 27.3029 18.381 27.5041 18.4312V17.1546ZM36.0359 23.236H34.7284C34.3765 24.2607 33.6893 24.8151 32.549 24.8151C30.94 24.8151 29.9179 23.7398 29.8507 21.7913H36.0861V21.2369C36.0861 19.0697 34.9631 17.0706 32.4657 17.0706C30.2191 17.0706 28.493 18.7842 28.493 21.5391C28.493 24.2607 30.1692 25.9238 32.549 25.9238C34.192 25.9238 35.6502 25.0335 36.0359 23.236ZM32.4657 18.1961C33.9741 18.1961 34.695 19.3216 34.7284 20.7834H29.9011C30.1355 19.0529 31.1415 18.1961 32.4657 18.1961Z" fill="#79716B"/>
<path fill-rule="evenodd" clip-rule="evenodd" d="M10.5579 12.283H12.0666L7.20562 0.28833H5.57961L0.735596 12.283H2.17684L3.50105 8.93997H9.23373L10.5579 12.283ZM6.35067 1.73306H6.40112L8.76446 7.74715H3.97061L6.35067 1.73306ZM13.0052 8.06637C13.0052 10.771 14.6312 12.4846 16.9778 12.4846C18.8552 12.4846 20.0952 11.4262 20.3636 9.61193H19.0394C18.8047 10.7374 18.1175 11.3591 16.9778 11.3591C15.3184 11.3591 14.3795 10.0487 14.3795 8.06637C14.3795 6.08402 15.3184 4.75686 16.9778 4.75686C18.1175 4.75686 18.8047 5.37855 19.0394 6.50406H20.3636C20.0952 4.7066 18.8552 3.63135 16.9778 3.63135C14.6312 3.63135 13.0052 5.3618 13.0052 8.06637ZM26.4145 11.0399C25.8781 11.2078 25.5094 11.2418 25.1909 11.2418C24.4198 11.2418 23.9673 10.9391 23.9673 10.0487V4.89149H26.1963V3.833H23.984V1.6828H22.6096V3.833H21.3693V4.89149H22.6096V10.1158C22.6096 11.6784 23.3971 12.4173 24.9395 12.4173C25.3082 12.4173 25.7945 12.3671 26.4145 12.1822V11.0399ZM36.0688 7.26008V6.11782H32.2809V2.3042H31.1412V6.11782H27.3363V7.26008H31.1412V11.0734H32.2809V7.26008H36.0688Z" fill="#79716B"/>
</g>
<defs>
<clipPath id="clip0_8806_7366">
<rect width="35.4545" height="26" fill="white" transform="translate(0.732422)"/>
</clipPath>
</defs>
</svg>
