<svg width="58" height="16" viewBox="0 0 58 16" fill="none" xmlns="http://www.w3.org/2000/svg">
<g clip-path="url(#clip0_8806_7305)">
<mask id="mask0_8806_7305" style="mask-type:luminance" maskUnits="userSpaceOnUse" x="1" y="0" width="57" height="16">
<path d="M57.4206 0.362793H1.55664V15.5984H57.4206V0.362793Z" fill="white"/>
</mask>
<g mask="url(#mask0_8806_7305)">
<path d="M56.7139 15.4719H53.525C53.0691 15.4719 52.9439 14.9658 53.263 14.5335C53.4336 14.2699 53.7413 13.7955 53.7413 13.0468C53.7413 12.0452 52.8982 11.3809 51.0991 11.3809C49.1058 11.3809 48.1265 12.003 48.1265 13.0258C48.1265 13.7638 48.559 14.1328 48.9462 14.4914C49.5273 15.029 49.2539 15.4719 48.8209 15.4719H30.8606C30.2798 15.4719 30.1887 14.9553 30.519 14.5124C30.8606 14.0274 31.339 13.7322 31.339 12.9836C31.339 11.9608 30.4506 11.3809 28.7195 11.3809C26.8517 11.3809 25.7697 11.9819 25.7697 13.0047C25.7697 13.6478 26.0317 14.2699 26.3506 14.5652C26.7833 15.0079 26.5897 15.4719 26.2594 15.4719H21.2483C20.1208 15.4719 19.8132 14.7128 19.8132 14.3648V11.9187C19.8132 10.295 18.7085 8.96643 16.9774 8.96643H15.9752V10.6534C15.9752 12.1822 16.3054 13.2366 16.556 14.1856C16.7496 14.913 16.2712 15.4719 15.4741 15.4719H11.1348C9.79088 15.4719 9.48341 14.4703 9.21004 14.4703C8.77728 14.4703 8.90257 15.5984 6.30588 15.5984C3.265 15.5879 1.55664 13.4054 1.55664 8.51306C1.55664 3.13579 3.50417 0.362793 7.08032 0.362793C8.83423 0.362793 9.59732 1.36444 10.0529 1.36444C10.5312 1.36444 10.5084 0.404967 11.374 0.404967C11.9206 0.404967 12.0231 1.06922 11.784 1.84945C11.4764 2.78784 11.2259 3.57862 11.1576 4.98092C11.112 5.6452 10.964 5.90877 10.6565 5.90877C9.55175 5.90877 9.74539 2.7773 7.17144 2.7773C4.82529 2.7773 3.74334 5.26562 3.74334 8.46039C3.74334 11.3704 4.77974 13.1945 6.73866 13.1945C8.58364 13.1945 9.35812 12.1296 9.35812 10.9487C9.35812 9.96806 8.7545 9.48306 7.46756 9.16681C6.43116 8.90316 6.64755 7.60632 7.53586 7.60632H11.8523C12.456 7.60632 12.7635 8.85049 11.8296 9.18785C11.1804 9.45143 10.8728 10.2739 10.8728 11.4758C10.8728 13.0363 11.3967 13.8587 12.2851 13.8587C13.0824 13.8587 13.5037 13.4581 13.8227 11.8554C14.2554 9.85212 14.1074 6.47812 14.0846 4.12689C14.0618 3.04089 13.7543 2.01815 13.5265 1.70184C13.0709 1.0165 13.3101 0.436599 14.0504 0.436599H17.5013C20.6219 0.436599 22.4669 2.03924 22.4669 4.68569C22.4669 6.30943 21.4305 7.6907 19.7335 8.31275C21.4192 9.07184 22.0113 10.2001 22.2049 11.7395C22.3986 13.2999 22.7061 13.7006 23.0933 13.7006C23.435 13.7006 23.6741 13.2156 24.05 11.634C24.3802 10.3055 25.7014 5.09692 25.895 4.032C26.0886 2.96708 25.9406 2.00761 25.7242 1.34336C25.5533 0.784544 25.7014 0.415511 26.2253 0.415511H30.9745C31.5326 0.415511 31.6465 0.879433 31.5326 1.32227C31.4187 1.74402 31.2934 2.32392 31.2934 3.25177C31.2934 4.73842 33.0929 10.9381 33.4118 12.0241C33.8901 13.5319 34.1521 14.0907 34.6076 14.0907C35.234 14.0907 35.3024 13.574 36.3843 11.4653C37.0563 10.1579 39.0493 6.79443 39.6188 5.8877C40.3135 4.7595 40.7691 4.15852 40.7691 3.50481C40.7691 2.96708 40.3819 2.61915 39.4251 2.61915C38.2066 2.61915 37.6029 3.15687 37.341 3.74732C37.1018 4.26396 37.1473 4.72789 37.1702 5.85604C37.1929 6.6152 36.5665 7.27948 35.8717 7.27948C34.9834 7.27948 34.5507 6.6152 34.5507 6.05639C34.5507 4.99147 35.5643 5.03366 35.5643 4.08471C35.5643 3.19904 35.3024 2.10251 34.6987 1.28009C34.4368 0.942697 34.6532 0.436599 35.4618 0.436599H43.7872C44.9147 0.436599 45.1081 1.34335 44.4365 2.23957C42.9785 4.19015 41.2474 7.19508 39.2771 10.548C38.7532 11.4337 38.5596 11.8976 38.5596 12.5091C38.5596 13.089 39.0607 13.6478 40.4616 13.6478C41.2588 13.6478 41.8738 13.1312 42.1699 12.6883C42.5799 12.1296 42.5571 11.2017 42.5571 10.2422C42.5571 8.91368 43.2063 8.29163 44.0717 8.29163C44.6985 8.29163 45.3019 8.65011 45.3019 9.51469C45.3019 9.97865 45.211 10.2422 44.6985 10.8643C44.3336 11.2861 44.1974 11.75 44.2426 12.3931C44.3565 13.6162 44.6071 14.0802 45.0286 14.0802C45.6778 14.0802 45.7687 13.574 46.0879 12.3299C46.5889 10.4004 47.7959 5.75062 48.1265 4.48537C48.4566 3.22013 48.5818 2.10251 48.1718 1.29064C47.9326 0.847801 48.1718 0.426055 48.6732 0.426055H53.6388C54.0942 0.426055 54.3104 0.826711 54.1171 1.36444C53.8551 2.09196 53.8551 3.05143 54.0714 4.41157C54.288 5.79282 55.2445 9.56744 55.7003 11.3915C56.1328 13.0996 56.5429 13.6795 57.1578 14.3226C57.6703 14.892 57.3855 15.4719 56.7139 15.4719ZM17.2279 7.44816C19.0729 7.44816 20.0866 6.40432 20.0866 4.84385C20.0866 3.49427 19.2666 2.49262 17.8772 2.49262C16.6244 2.49262 15.9865 3.17795 15.9865 4.51701V7.44816H17.2279ZM30.2911 9.65181C29.1181 3.7895 29.0953 3.03034 28.5372 3.03034C27.9906 3.03034 27.9792 3.75786 26.7378 9.65181H30.2911ZM52.8186 9.65181C51.6226 3.76841 51.6002 3.00926 51.042 3.00926C50.4952 3.00926 50.4952 3.73677 49.2653 9.65181H52.8186Z" fill="#79716B"/>
</g>
</g>
<defs>
<clipPath id="clip0_8806_7305">
<rect width="56.5895" height="15.9611" fill="white" transform="translate(0.952148)"/>
</clipPath>
</defs>
</svg>
