<svg width="54" height="16" viewBox="0 0 54 16" fill="none" xmlns="http://www.w3.org/2000/svg">
<g clip-path="url(#clip0_8806_7347)">
<path d="M23.9408 0.00268555H18.7646V15.5507H23.9408C26.5108 15.5507 28.2436 14.3983 28.9496 12.2162C29.2146 11.3958 29.3235 10.1011 29.3235 7.74041C29.3235 5.37976 29.2174 4.17152 28.9496 3.33999C28.2436 1.15791 26.5135 0.0054744 23.9408 0.0054744V0.00268555ZM26.3238 11.2758C25.9108 12.5315 24.99 13.0924 23.3325 13.0924H21.4853V2.46102H23.3325C24.99 2.46102 25.9136 3.02188 26.3266 4.28313C26.4996 4.75471 26.5833 5.85412 26.5833 7.73765C26.5833 9.62114 26.4996 10.8043 26.3266 11.2758H26.3238Z" fill="#79716B"/>
<path d="M31.188 7.46983C31.188 9.9198 31.308 11.4266 31.5619 12.2135C32.2678 14.3956 33.9979 15.548 36.5706 15.548H41.7468V6.38162H35.887L37.0953 8.83994H39.0289V13.0897H37.1817C35.5242 13.0897 34.6006 12.5288 34.1876 11.2676C34.0258 10.8267 33.9309 9.44263 33.9309 7.46707C33.9309 5.39661 34.0342 4.69343 34.1876 4.27208C34.5978 3.01641 35.5214 2.45833 37.179 2.45833H41.7468V0H36.5706C34.0007 0 32.2678 1.15243 31.5619 3.33451C31.3135 4.09908 31.188 4.95015 31.188 7.46707V7.46983Z" fill="#79716B"/>
<path d="M53.9154 2.46102V0.00268555H44.4644V15.5479H53.9154V13.0896H47.185V8.8426H51.9873L53.1955 6.3843H47.185V2.46102H53.9154Z" fill="#79716B"/>
<path d="M11.1722 15.548L7.8907 9.21665L7.95208 9.19433C9.73797 8.56931 10.8792 7.01503 10.9295 5.13431V5.00037L10.9322 4.48973C10.9322 1.88909 8.91477 0 6.13835 0H0.097168V15.548H2.815V2.45833H2.90151H6.05185C7.37731 2.45833 8.23673 3.25638 8.23673 4.48973V5.00316C8.23673 6.23652 7.38008 7.03457 6.05185 7.03457H5.91233L4.89105 9.11062L8.07208 15.548H11.175H11.1722Z" fill="#79716B"/>
<path d="M16.0106 4.07107V0.00268555H13.29V15.5479H16.0106V7.03446H14.5513L16.0106 4.07107Z" fill="#79716B"/>
</g>
<defs>
<clipPath id="clip0_8806_7347">
<rect width="53.8182" height="16" fill="white" transform="translate(0.097168)"/>
</clipPath>
</defs>
</svg>
