<svg width="78" height="14" viewBox="0 0 78 14" fill="none" xmlns="http://www.w3.org/2000/svg">
<g clip-path="url(#clip0_8806_7338)">
<path d="M46.7514 12.1251C45.543 13.1849 44.0669 13.8074 42.4713 13.9346C39.3387 14.1838 36.4136 11.9897 35.5511 9.01504C34.7931 6.39719 35.6586 3.59644 37.7077 1.79827C39.7568 9.39108e-05 42.6442 -0.492164 45.1377 0.60375C47.9711 1.8487 49.7607 5.03934 49.1035 8.11483C48.7689 9.68192 47.9591 11.0654 46.7514 12.1251ZM39.6763 1.44977C37.5009 2.5788 36.2857 4.64343 36.5895 7.113C36.757 8.47586 37.2535 9.67088 38.0791 10.6981C39.1176 11.9912 40.6087 12.856 42.2675 12.935C45.258 13.0781 47.8763 10.6303 47.9297 7.66095C47.9816 4.73751 46.2333 2.03536 43.4037 1.1359C42.1129 0.725434 40.8704 0.830058 39.6763 1.44977Z" fill="#79716B"/>
<path d="M60.0288 0.191154C60.0302 0.185551 60.0336 0.180645 60.0384 0.177329C60.0433 0.174014 60.0492 0.172509 60.0551 0.17309C61.2061 0.275957 62.4428 0.29076 63.7652 0.217498C64.3116 0.187391 64.8641 0.130186 65.4225 0.0458852C65.4319 0.0445204 65.4415 0.0461139 65.4499 0.0504388C65.4582 0.0547636 65.465 0.0615991 65.4691 0.0699712C65.7399 0.619434 66.2 1.11922 66.6219 1.53621C66.6273 1.54153 66.6315 1.54786 66.6344 1.55483C66.6373 1.56181 66.6388 1.56929 66.6388 1.57685C66.6388 1.58441 66.6373 1.5919 66.6344 1.59887C66.6315 1.60585 66.6273 1.61218 66.6219 1.6175L66.191 2.04804C66.1832 2.05615 66.1725 2.06085 66.1613 2.06113C66.15 2.06141 66.1391 2.05725 66.1309 2.04954C65.6075 1.57309 65.0804 1.24868 64.36 1.15911C63.5246 1.05524 62.4786 1.09664 61.8568 1.07632C61.8487 1.07601 61.8406 1.07736 61.8331 1.08029C61.8255 1.08322 61.8186 1.08766 61.8128 1.09335C61.8069 1.09905 61.8023 1.10587 61.7991 1.11342C61.796 1.12097 61.7944 1.12908 61.7944 1.13728V4.63277C61.7944 4.64894 61.8008 4.66444 61.8122 4.67588C61.8236 4.68731 61.8391 4.69373 61.8553 4.69373C63.7377 4.70528 65.035 4.70076 65.7474 4.68019C65.8842 4.67642 66.1196 4.62825 66.2346 4.49578C66.2662 4.46015 66.2998 4.42929 66.3354 4.4032C66.3552 4.38886 66.3779 4.37957 66.4016 4.3761L66.7873 4.3204C66.7927 4.31965 66.7982 4.32006 66.8034 4.32161C66.8087 4.32315 66.8135 4.32579 66.8176 4.32935C66.8218 4.33291 66.8251 4.33731 66.8274 4.34226C66.8297 4.3472 66.8309 4.35258 66.8309 4.35804V5.94997C66.831 5.95716 66.8295 5.96428 66.8266 5.97086C66.8237 5.97744 66.8195 5.98333 66.8142 5.98816C66.8088 5.99299 66.8026 5.99664 66.7957 5.99888C66.7889 6.00112 66.7817 6.00189 66.7745 6.00115L66.4151 5.96277C66.3984 5.9608 66.3827 5.95399 66.37 5.9432C66.1504 5.75352 65.9993 5.61954 65.7053 5.609C64.8525 5.57814 63.79 5.57212 61.8485 5.57739C61.8341 5.57739 61.8204 5.5831 61.8102 5.59326C61.8001 5.60343 61.7944 5.61721 61.7944 5.63158V12.6888C61.7944 12.7008 61.799 12.7123 61.8073 12.7207C61.8157 12.7292 61.827 12.7339 61.8387 12.7339C62.3651 12.735 63.103 12.7352 64.0525 12.7347C65.1132 12.7342 65.9782 12.325 66.6475 11.5071C66.6594 11.4924 66.6762 11.4824 66.6948 11.479C66.7134 11.4755 66.7326 11.4788 66.749 11.4883L67.1979 11.7479C67.2137 11.757 67.2254 11.772 67.2305 11.7897C67.2355 11.8074 67.2335 11.8264 67.225 11.8428C67.038 12.202 66.7485 12.6981 66.3565 13.3308C66.2595 13.4866 66.1369 13.7328 66.0512 13.9315C66.0486 13.9372 66.0449 13.9423 66.0403 13.9465C66.0356 13.9508 66.0302 13.954 66.0243 13.9561C66.0184 13.9581 66.0121 13.9589 66.0059 13.9584C65.9996 13.958 65.9935 13.9562 65.988 13.9533C65.5504 13.722 65.0739 13.6071 64.5585 13.6086C62.1889 13.6151 60.6963 13.6151 60.0807 13.6086C60.0647 13.6084 60.0492 13.603 60.0367 13.5932C60.0242 13.5834 60.0153 13.5697 60.0115 13.5544L59.9107 13.157C59.907 13.1424 59.9082 13.127 59.9141 13.1132C59.9199 13.0993 59.9301 13.0877 59.943 13.0802C59.9711 13.0641 60.026 13.0378 60.1077 13.0012C60.3739 12.8837 60.407 12.4878 60.407 12.2123C60.412 6.16373 60.4113 2.59474 60.4047 1.50535C60.4037 1.30313 60.3739 1.13929 60.3153 1.01384C60.2471 0.868322 60.1117 0.778753 59.9092 0.745132C59.9067 0.744792 59.9042 0.743913 59.902 0.742553C59.8999 0.741193 59.898 0.739385 59.8966 0.737248C59.8952 0.735111 59.8942 0.732695 59.8938 0.730161C59.8934 0.727627 59.8935 0.725033 59.8942 0.722552L60.0288 0.191154Z" fill="#79716B"/>
<path d="M0.097168 13.1795V13.1216C0.12875 13.0875 0.199183 13.0496 0.308467 13.0079C0.543076 12.9184 0.600977 12.478 0.601729 12.2688C0.603233 11.4152 0.604987 8.22886 0.606992 2.70965C0.606992 2.07588 0.592705 1.58789 0.564131 1.24567C0.541572 0.978713 0.406471 0.815631 0.158828 0.75642C0.148995 0.754049 0.139733 0.749736 0.131588 0.743735C0.123442 0.737733 0.116576 0.730163 0.111393 0.721469C0.10621 0.712775 0.102813 0.703132 0.101404 0.693107C0.099994 0.683081 0.100599 0.672875 0.103184 0.663086L0.219736 0.201688C0.223822 0.186296 0.233693 0.173081 0.247286 0.164805C0.26088 0.156529 0.277143 0.153832 0.292676 0.15728C0.357344 0.172333 0.477656 0.201688 0.567139 0.206957C1.79483 0.28323 3.05435 0.278713 4.3457 0.193409C4.74424 0.167316 5.16684 0.11814 5.6135 0.0458819C5.6251 0.0439369 5.63707 0.0459813 5.64754 0.0516976C5.65801 0.057414 5.66639 0.0664825 5.6714 0.0774948C5.91127 0.607387 6.40606 1.1418 6.80083 1.51588C6.80857 1.52322 6.81476 1.53203 6.81904 1.5418C6.82331 1.55157 6.82559 1.5621 6.82573 1.57277C6.82587 1.58343 6.82387 1.59402 6.81985 1.6039C6.81583 1.61378 6.80988 1.62275 6.80233 1.63029L6.3835 2.05029C6.37311 2.06044 6.35913 2.06606 6.34462 2.06592C6.3301 2.06578 6.31623 2.05989 6.30605 2.04954C5.56462 1.29083 4.80891 1.11395 3.74414 1.08986C3.41128 1.08233 2.87739 1.07932 2.14248 1.08083C2.13547 1.08083 2.12853 1.08221 2.12205 1.0849C2.11557 1.08758 2.10969 1.09152 2.10473 1.09648C2.09977 1.10144 2.09584 1.10733 2.09316 1.11382C2.09047 1.1203 2.08909 1.12725 2.08909 1.13427V4.62975C2.08909 4.64732 2.09598 4.66417 2.10825 4.67659C2.12052 4.68901 2.13716 4.69599 2.15451 4.69599C3.74615 4.70151 4.99639 4.69975 5.90525 4.69072C6.21356 4.68771 6.41533 4.58359 6.51058 4.37835C6.51637 4.36554 6.5257 4.35467 6.53744 4.34706C6.54918 4.33945 6.56283 4.33542 6.57675 4.33545H6.9828C6.99397 4.33545 7.00468 4.33981 7.01258 4.34758C7.02048 4.35534 7.02491 4.36587 7.02491 4.37685V5.94545C7.02491 5.9589 7.01963 5.9718 7.0102 5.98138C7.00078 5.99096 6.98796 5.99644 6.97453 5.99663C6.81061 6.00165 6.67651 5.98635 6.57224 5.95072C6.54177 5.94089 6.51466 5.92263 6.49403 5.89803C6.32309 5.69531 6.09575 5.59219 5.81201 5.58868C4.40987 5.57262 3.18444 5.57061 2.13571 5.58266C2.12335 5.58266 2.11149 5.58765 2.10275 5.59654C2.094 5.60544 2.08909 5.6175 2.08909 5.63008V12.688C2.08909 12.7002 2.09392 12.7119 2.10253 12.7205C2.11113 12.7291 2.1228 12.7339 2.13496 12.7339C2.69391 12.7349 3.40551 12.7349 4.26976 12.7339C5.02622 12.7334 5.69446 12.5106 6.27446 12.0656C6.47975 11.9075 6.70984 11.6486 6.8655 11.4965C6.87529 11.487 6.88791 11.4808 6.90147 11.4791C6.91503 11.4773 6.92879 11.48 6.94069 11.4867L7.39036 11.7464C7.40167 11.7531 7.41015 11.7636 7.41417 11.7761C7.41819 11.7886 7.41748 11.8022 7.41217 11.8142C7.30339 12.0595 7.23922 12.1975 7.21967 12.2281C6.80058 12.8895 6.47198 13.457 6.23386 13.9307C6.2312 13.9363 6.22742 13.9412 6.22275 13.9452C6.21808 13.9492 6.21263 13.9522 6.20671 13.9541C6.2008 13.9559 6.19455 13.9565 6.18836 13.9558C6.18217 13.9552 6.17616 13.9533 6.17069 13.9503C5.75812 13.7255 5.31096 13.6128 4.82921 13.6123C3.01249 13.6118 1.50658 13.6121 0.311475 13.6131C0.285509 13.6131 0.260237 13.6047 0.239481 13.5891C0.218725 13.5735 0.203611 13.5515 0.196426 13.5265L0.097168 13.1795Z" fill="#79716B"/>
<path d="M18.7398 13.6125H16.3682C16.3555 13.6125 16.3433 13.6077 16.3341 13.599C16.3249 13.5903 16.3193 13.5784 16.3186 13.5658C16.3105 13.4263 16.3098 13.2881 16.3163 13.1511C16.3188 13.1034 16.3684 13.0547 16.4652 13.005C16.4857 12.9947 16.5017 12.9772 16.5103 12.9559C16.5188 12.9345 16.5194 12.9108 16.5118 12.8891C16.4642 12.7521 16.3973 12.6179 16.311 12.4864C15.5992 11.3981 14.5986 9.88817 13.3092 7.95677C13.3063 7.95227 13.3023 7.94857 13.2976 7.94601C13.2928 7.94345 13.2875 7.9421 13.2822 7.9421C13.2768 7.9421 13.2715 7.94345 13.2668 7.94601C13.2621 7.94857 13.258 7.95227 13.2551 7.95677C11.6986 10.2966 10.726 11.7634 10.3375 12.357C10.2067 12.5572 10.1104 12.7388 10.0488 12.9019C10.0425 12.9184 10.0423 12.9365 10.0483 12.9531C10.0542 12.9696 10.0658 12.9835 10.0811 12.9923L10.2217 13.0735C10.2322 13.0797 10.2409 13.0885 10.247 13.0991C10.2531 13.1096 10.2563 13.1216 10.2563 13.1338V13.5696C10.2563 13.5809 10.2518 13.5919 10.2438 13.5999C10.2357 13.6079 10.2248 13.6125 10.2134 13.6125H8.39222C8.37965 13.6125 8.3676 13.6075 8.35872 13.5986C8.34983 13.5897 8.34484 13.5776 8.34484 13.565V13.1714C8.34481 13.1519 8.34985 13.1327 8.35947 13.1157C8.36909 13.0987 8.38296 13.0844 8.39974 13.0743C8.79777 12.8354 9.12136 12.5314 9.37051 12.162C9.60813 11.8098 10.7245 10.1275 12.7197 7.11526C12.7266 7.10483 12.7303 7.0926 12.7303 7.08014C12.7303 7.06767 12.7266 7.05553 12.7197 7.04526C12.1492 6.19172 11.0068 4.46982 9.2923 1.87957C8.96195 1.38028 8.57419 0.996411 8.12903 0.727952C8.11318 0.71828 8.10007 0.704752 8.09099 0.688669C8.0819 0.672586 8.07713 0.654491 8.07715 0.636124V0.265049C8.07715 0.249478 8.08333 0.234545 8.09433 0.223535C8.10533 0.212525 8.12025 0.206339 8.1358 0.206339H10.5315C10.5372 0.206339 10.5427 0.207449 10.5479 0.209605C10.5531 0.211761 10.5579 0.214921 10.5618 0.218905C10.5658 0.222889 10.569 0.227619 10.5711 0.232824C10.5733 0.238029 10.5744 0.243608 10.5744 0.249243V0.657952C10.5744 0.671657 10.5711 0.685165 10.5648 0.697343C10.5586 0.709522 10.5495 0.720018 10.5383 0.727952L10.424 0.80849C10.4031 0.823063 10.3878 0.844276 10.3805 0.868632C10.3733 0.892987 10.3745 0.91903 10.3841 0.942468C10.4628 1.13616 10.5669 1.33136 10.6962 1.52806C10.8987 1.83716 11.8384 3.24419 13.5153 5.74914C13.5338 5.77724 13.5454 5.79254 13.5499 5.79505C13.5618 5.80219 13.5761 5.80445 13.5898 5.80138C13.6035 5.79831 13.6155 5.79012 13.6236 5.77849C14.3038 4.76788 15.2686 3.31519 16.5178 1.42043C16.5985 1.29799 16.6835 1.13716 16.7727 0.937952C16.7829 0.91571 16.7843 0.890473 16.7768 0.867208C16.7693 0.843944 16.7534 0.824339 16.7321 0.812253L16.6208 0.748275C16.6057 0.739367 16.5932 0.726695 16.5845 0.711512C16.5758 0.69633 16.5712 0.679164 16.5712 0.661716V0.249243C16.5712 0.237465 16.5759 0.226169 16.5842 0.217841C16.5925 0.209513 16.6038 0.204834 16.6156 0.204834H18.4549C18.4698 0.204834 18.4842 0.210782 18.4947 0.221368C18.5053 0.231955 18.5113 0.246314 18.5113 0.261286V0.62935C18.5112 0.652312 18.505 0.674814 18.4932 0.69444C18.4814 0.714067 18.4645 0.730075 18.4443 0.740748C18.0423 0.954511 17.6846 1.29648 17.3713 1.76666C16.7993 2.62573 15.7275 4.2415 14.1559 6.61397C14.1466 6.62798 14.1416 6.64452 14.1416 6.66152C14.1416 6.67852 14.1466 6.69523 14.1559 6.70957C15.8694 9.29931 17.0765 11.1178 17.7773 12.165C18.021 12.5288 18.3446 12.8327 18.7481 13.0766C18.764 13.0862 18.7771 13.0998 18.7862 13.1161C18.7952 13.1323 18.8 13.1505 18.8 13.1691V13.5523C18.8 13.5682 18.7937 13.5835 18.7824 13.5948C18.7711 13.6061 18.7558 13.6125 18.7398 13.6125Z" fill="#79716B"/>
<path d="M21.7919 13.6116H19.6519C19.644 13.6116 19.6362 13.6101 19.6289 13.6071C19.6217 13.6041 19.6151 13.5997 19.6096 13.5942C19.6041 13.5887 19.5997 13.5821 19.5968 13.5749C19.5938 13.5677 19.5924 13.56 19.5925 13.5522L19.5962 13.2052C19.5962 13.1776 19.6035 13.1503 19.6173 13.1262C19.6646 13.0441 19.7819 12.9734 19.8278 12.877C19.9371 12.6472 19.992 12.4257 19.9925 12.2124C20.0005 8.91563 20.0013 5.44072 19.9947 1.78767C19.9947 1.60753 19.9682 1.39301 19.915 1.14412C19.8677 0.920572 19.7511 0.846809 19.5631 0.719605C19.5557 0.71472 19.5496 0.708034 19.5454 0.70015C19.5412 0.692265 19.539 0.683431 19.5391 0.674443V0.310142C19.5391 0.286174 19.5484 0.263153 19.5651 0.245995C19.5819 0.228838 19.6046 0.218904 19.6285 0.218314C20.1604 0.205769 21.0129 0.201253 22.1859 0.204766C23.3695 0.208529 24.532 0.404228 25.5652 0.987562C27.1165 1.86369 27.906 3.3924 27.9865 5.16498C28.1249 8.21638 25.7171 10.6897 22.689 10.7522C22.1471 10.7632 21.721 10.7635 21.4107 10.7529C21.4043 10.7527 21.3979 10.7538 21.392 10.7561C21.386 10.7584 21.3806 10.7618 21.3759 10.7662C21.3713 10.7707 21.3676 10.7759 21.3651 10.7818C21.3625 10.7877 21.3611 10.794 21.361 10.8004C21.349 11.4256 21.3513 11.956 21.3678 12.3915C21.3798 12.7167 21.5207 12.949 21.7904 13.0885C21.8029 13.0951 21.8133 13.105 21.8206 13.117C21.8279 13.1291 21.8318 13.1429 21.8318 13.157V13.5725C21.8318 13.5776 21.8307 13.5827 21.8287 13.5875C21.8267 13.5922 21.8238 13.5966 21.8201 13.6002C21.8164 13.6038 21.812 13.6067 21.8072 13.6087C21.8023 13.6106 21.7971 13.6116 21.7919 13.6116ZM21.3844 9.87079C21.8857 9.88283 22.3579 9.87957 22.801 9.861C23.953 9.81283 25.0749 9.34842 25.7457 8.37971C26.3172 7.55326 26.5217 6.52208 26.5533 5.49466C26.6097 3.70401 25.8705 2.12638 24.1515 1.43391C23.5735 1.20057 22.9745 1.08391 22.3544 1.08391C21.8004 1.08391 21.4814 1.0819 21.3971 1.07788C21.3916 1.07758 21.3861 1.0784 21.3809 1.08031C21.3757 1.08221 21.371 1.08515 21.367 1.08896C21.3629 1.09277 21.3597 1.09735 21.3576 1.10244C21.3554 1.10752 21.3543 1.113 21.3543 1.11853L21.355 9.84143C21.355 9.84909 21.3581 9.85644 21.3636 9.86193C21.3691 9.86741 21.3765 9.87059 21.3844 9.87079Z" fill="#79716B"/>
<path d="M35.3806 12.9635C35.3869 12.9723 35.3911 12.9825 35.3929 12.9932C35.3947 13.0039 35.394 13.0149 35.3909 13.0253C35.3877 13.0357 35.3823 13.0454 35.3749 13.0534C35.3675 13.0615 35.3584 13.0678 35.3483 13.0719C34.9896 13.2134 34.2715 13.5476 34.1399 13.9307C34.1339 13.9479 34.1229 13.9627 34.1082 13.9733C34.0935 13.9838 34.0759 13.9894 34.0579 13.9894H33.6857C33.6719 13.9895 33.6586 13.9847 33.648 13.9759C33.6374 13.9671 33.6303 13.9548 33.6278 13.9413C33.6052 13.8273 33.5554 13.7563 33.4782 13.7282C33.2766 13.6545 33.0415 13.6168 32.7728 13.6153C32.2369 13.6118 30.9331 13.6111 28.8612 13.6131C28.8455 13.6131 28.8302 13.6078 28.8178 13.5981C28.8054 13.5884 28.7966 13.5749 28.7927 13.5596L28.6837 13.1306C28.6793 13.1126 28.682 13.0937 28.6913 13.0778C28.7006 13.0619 28.7157 13.0503 28.7333 13.0456C28.8943 13.0019 29.0409 12.9326 29.0973 12.758C29.1579 12.5704 29.1883 12.4198 29.1883 12.3064C29.1913 5.50763 29.1908 2.01114 29.1868 1.81695C29.1792 1.46319 29.101 0.988993 28.8552 0.690176C28.8434 0.675913 28.8358 0.658702 28.8333 0.640499L28.7912 0.282972C28.7902 0.273832 28.7911 0.264571 28.7939 0.255794C28.7967 0.247017 28.8013 0.238921 28.8075 0.232032C28.8137 0.225143 28.8212 0.219618 28.8297 0.215815C28.8382 0.212012 28.8474 0.210017 28.8567 0.209961H31.0012C31.0076 0.209961 31.0139 0.211218 31.0197 0.213659C31.0256 0.216099 31.0309 0.219672 31.0353 0.224166C31.0397 0.22866 31.0431 0.233982 31.0454 0.239817C31.0477 0.245653 31.0488 0.251881 31.0486 0.258133L31.0403 0.675875C31.0401 0.68922 31.0367 0.702357 31.0304 0.714246C31.0242 0.726135 31.0152 0.736448 31.0042 0.74437C30.9857 0.757416 30.9336 0.784011 30.8478 0.824154C30.5959 0.942327 30.5749 1.37587 30.5749 1.63781C30.5754 7.08778 30.5749 10.7637 30.5734 12.6654C30.5734 12.6784 30.5785 12.6909 30.5877 12.7C30.5968 12.7092 30.6093 12.7144 30.6222 12.7144C32.1793 12.7134 33.1959 12.7131 33.6722 12.7136C34.1594 12.7136 34.5961 12.6572 34.9821 12.5443C35.0076 12.537 35.0347 12.5378 35.0598 12.5467C35.0848 12.5556 35.1066 12.5721 35.1219 12.5939L35.3806 12.9635Z" fill="#79716B"/>
<path d="M56.8177 13.5461C56.8027 13.3978 56.7733 13.1494 56.9019 13.0441C56.9164 13.0322 56.9264 13.0157 56.9302 12.9974C56.9341 12.979 56.9315 12.9599 56.923 12.9432C56.8438 12.7887 56.7382 12.6218 56.6064 12.4427C56.3197 12.0528 55.8143 11.3814 55.0905 10.4285C55.0785 10.4128 55.0618 10.4014 55.0427 10.396C55.0236 10.3906 55.0032 10.3914 54.9844 10.3984C53.9685 10.7792 53.1812 10.7649 51.8661 10.7567C51.8548 10.7566 51.8439 10.761 51.8358 10.7689C51.8276 10.7768 51.8229 10.7875 51.8225 10.7988C51.8019 11.4386 51.8084 12.0049 51.842 12.4976C51.8606 12.7741 51.9864 12.9623 52.2195 13.0621C52.2369 13.0697 52.2517 13.0823 52.2622 13.0982C52.2726 13.1141 52.2781 13.1327 52.2782 13.1517V13.5619C52.2782 13.5684 52.2769 13.5749 52.2744 13.5809C52.2719 13.587 52.2682 13.5924 52.2636 13.597C52.259 13.6017 52.2535 13.6053 52.2475 13.6078C52.2415 13.6103 52.235 13.6116 52.2285 13.6116H50.1223C50.1044 13.6116 50.0871 13.6045 50.0744 13.5918C50.0618 13.5791 50.0546 13.5618 50.0546 13.5439V13.1856C50.0546 13.172 50.0574 13.1586 50.0627 13.1462C50.068 13.1338 50.0757 13.1226 50.0855 13.1133C50.3236 12.886 50.4426 12.5794 50.4426 12.1935C50.4441 5.8554 50.4449 2.59375 50.4449 2.40859C50.4459 1.88773 50.4276 1.50285 50.39 1.25396C50.3426 0.940845 50.2441 0.887404 50.0208 0.718049C50.0145 0.713363 50.0094 0.707251 50.0059 0.700196C50.0024 0.693142 50.0005 0.685338 50.0005 0.677404V0.306329C50.0005 0.282832 50.0097 0.260275 50.0262 0.24352C50.0426 0.226765 50.065 0.217154 50.0885 0.216759C50.8825 0.203712 51.7581 0.2002 52.715 0.206221C55.5288 0.223533 57.8817 1.51364 58.375 4.49278C58.7096 6.51074 57.9186 8.45041 56.2793 9.69009C56.2713 9.69622 56.266 9.70526 56.2646 9.71527C56.2632 9.72527 56.2658 9.73543 56.2718 9.74353C56.943 10.6538 57.5686 11.4825 58.1487 12.2297C58.4374 12.602 58.775 12.8797 59.1615 13.0629C59.1764 13.0701 59.189 13.0814 59.1978 13.0953C59.2066 13.1093 59.2112 13.1255 59.2112 13.1419V13.5567C59.2112 13.5712 59.2055 13.5852 59.1953 13.5955C59.1852 13.6058 59.1714 13.6116 59.157 13.6116H56.8899C56.872 13.6117 56.8547 13.605 56.8413 13.5929C56.828 13.5808 56.8196 13.5641 56.8177 13.5461ZM51.842 9.87074C52.3433 9.88278 52.8155 9.87952 53.2587 9.86095C54.4092 9.81278 55.5311 9.34837 56.2018 8.38041C56.7733 7.55396 56.9779 6.52278 57.0102 5.49536C57.0666 3.70547 56.3274 2.12783 54.6092 1.43536C54.0312 1.20203 53.4321 1.08536 52.812 1.08536C52.2581 1.08536 51.939 1.08335 51.8548 1.07934C51.8493 1.07903 51.8438 1.07986 51.8386 1.08176C51.8334 1.08367 51.8286 1.08661 51.8246 1.09042C51.8206 1.09422 51.8174 1.09881 51.8152 1.10389C51.8131 1.10898 51.8119 1.11445 51.8119 1.11998L51.8127 9.84138C51.8127 9.84904 51.8158 9.85639 51.8212 9.86188C51.8267 9.86736 51.8342 9.87054 51.842 9.87074Z" fill="#79716B"/>
<path d="M77.097 13.0773V13.6079L74.7878 13.6125C74.773 13.6125 74.7589 13.6066 74.7484 13.5961C74.738 13.5857 74.7321 13.5715 74.7321 13.5568V13.1819C74.7321 13.1741 74.7342 13.1665 74.7382 13.1601L74.8254 13.0081C74.8319 12.9967 74.8355 12.9839 74.8358 12.9709C74.8362 12.9579 74.8334 12.9451 74.8276 12.9335C74.7244 12.7338 74.6286 12.5755 74.5404 12.4586C73.819 11.5022 73.3032 10.817 72.9929 10.403C72.9864 10.3943 72.9773 10.388 72.9668 10.3851C72.9564 10.3821 72.9452 10.3826 72.935 10.3864C72.2983 10.6298 71.6366 10.753 70.9498 10.756C70.5307 10.758 70.1372 10.7578 69.7692 10.7553C69.7635 10.7553 69.7579 10.7564 69.7526 10.7585C69.7473 10.7607 69.7425 10.7638 69.7384 10.7678C69.7344 10.7718 69.7311 10.7765 69.729 10.7817C69.7268 10.7869 69.7256 10.7925 69.7256 10.7982C69.7236 11.2402 69.7241 11.6678 69.7271 12.0807C69.7301 12.4827 69.7399 12.8876 70.149 13.066C70.1657 13.0734 70.18 13.0856 70.19 13.1009C70.2 13.1163 70.2053 13.1342 70.2054 13.1526V13.5846C70.2054 13.5918 70.2025 13.5987 70.1975 13.6038C70.1924 13.6089 70.1855 13.6117 70.1783 13.6117H68.0217C68.006 13.6117 67.9908 13.6055 67.9797 13.5945C67.9686 13.5835 67.9623 13.5686 67.9623 13.553V13.2105C67.9623 13.1886 67.9671 13.1669 67.9763 13.1468C67.9855 13.1268 67.9989 13.109 68.0157 13.0946C68.2508 12.8924 68.3686 12.567 68.3691 12.1184C68.3711 6.413 68.3706 2.95063 68.3676 1.73128C68.3669 1.49042 68.33 0.982352 68.124 0.852137C68.0448 0.80246 67.9819 0.761062 67.9352 0.727943C67.9273 0.722096 67.9209 0.714556 67.9164 0.705929C67.912 0.697302 67.9097 0.687828 67.9097 0.678266V0.293642C67.9097 0.272812 67.918 0.252823 67.9327 0.238023C67.9475 0.223223 67.9676 0.214809 67.9886 0.21461C68.8754 0.204574 69.7497 0.201564 70.6114 0.205578C71.9958 0.211599 73.3598 0.504395 74.4682 1.33235C75.5397 2.13321 76.139 3.31794 76.3158 4.62837C76.5052 6.03791 76.1987 7.31522 75.3961 8.46031C75.0663 8.93049 74.6712 9.33569 74.211 9.6759C74.2047 9.68055 74.1994 9.68639 74.1954 9.69308C74.1913 9.69976 74.1886 9.70716 74.1874 9.71486C74.1862 9.72255 74.1866 9.73039 74.1884 9.73791C74.1903 9.74543 74.1936 9.7525 74.1983 9.7587C74.7372 10.4833 75.3457 11.2894 76.024 12.1771C76.3168 12.561 76.6744 12.861 77.097 13.0773ZM69.7565 9.8701C70.2578 9.88214 70.73 9.87888 71.1731 9.86031C72.3244 9.81214 73.4463 9.34773 74.117 8.37977C74.6885 7.55332 74.8931 6.52214 74.9254 5.49472C74.9818 3.70482 74.2426 2.12719 72.5244 1.43472C71.9464 1.20138 71.3473 1.08447 70.7272 1.08396C70.1733 1.08396 69.8542 1.08196 69.77 1.07794C69.7645 1.07764 69.759 1.07846 69.7538 1.08036C69.7486 1.08227 69.7438 1.08521 69.7398 1.08902C69.7358 1.09282 69.7326 1.09741 69.7304 1.10249C69.7282 1.10758 69.7271 1.11306 69.7271 1.11859V9.84074C69.7271 9.8484 69.7302 9.85575 69.7357 9.86123C69.7412 9.86672 69.7486 9.8699 69.7565 9.8701Z" fill="#79716B"/>
</g>
<defs>
<clipPath id="clip0_8806_7338">
<rect width="77" height="14" fill="white" transform="translate(0.097168)"/>
</clipPath>
</defs>
</svg>
