<svg width="66" height="14" viewBox="0 0 66 14" fill="none" xmlns="http://www.w3.org/2000/svg">
<g clip-path="url(#clip0_8806_7288)">
<mask id="mask0_8806_7288" style="mask-type:luminance" maskUnits="userSpaceOnUse" x="0" y="0" width="66" height="14">
<path d="M65.7677 0H0.644531V13.966H65.7677V0Z" fill="white"/>
</mask>
<g mask="url(#mask0_8806_7288)">
<path d="M9.85254 9.38643C9.87085 9.29503 9.89615 9.20503 9.906 9.11355C10.0354 7.80804 10.1634 6.50401 10.2915 5.19853C10.4026 4.06327 10.511 2.9266 10.6221 1.79134C10.6572 1.42558 10.6896 1.05983 10.7374 0.695475C10.7909 0.290326 10.992 0.118701 11.393 0.118701C12.1217 0.118701 12.8503 0.118701 13.5791 0.118701C13.9181 0.118701 14.0264 0.210141 14.0011 0.551985C13.9659 1.04857 13.9069 1.54376 13.8408 2.03753C13.6536 3.44148 13.4666 4.84402 13.264 6.24516C13.0318 7.84746 12.7871 9.44835 12.538 11.0478C12.4439 11.6556 12.3214 12.2605 12.206 12.8654C12.1821 12.9934 12.1371 13.1186 12.0894 13.2396C11.9388 13.6222 11.6476 13.8262 11.2439 13.8347C10.5939 13.8487 9.94402 13.8431 9.29406 13.8361C8.91426 13.8318 8.65542 13.6222 8.53726 13.279C8.39519 12.8654 8.29387 12.4363 8.1743 12.0157C8.00689 11.4305 7.84089 10.8439 7.66645 10.2615C7.63128 10.1461 7.55813 10.0435 7.50327 9.93367C7.48357 9.93087 7.46388 9.92948 7.44277 9.92668C7.40057 10.0153 7.3443 10.0997 7.31617 10.1926C7.10375 10.9086 6.90258 11.6274 6.68734 12.3421C6.59449 12.6487 6.49603 12.9554 6.36238 13.2452C6.17528 13.6532 5.83484 13.8459 5.38186 13.8403C4.90919 13.8347 4.43652 13.8403 3.96384 13.8389C3.29423 13.8375 2.9158 13.5716 2.7484 12.9174C2.59085 12.3027 2.46282 11.6781 2.35169 11.0535C1.9789 8.95038 1.61174 6.84585 1.25723 4.73852C1.04481 3.47243 0.856301 2.20071 0.663573 0.931815C0.639658 0.77144 0.642472 0.604035 0.649506 0.440851C0.659353 0.229836 0.762047 0.122922 0.971655 0.121515C1.76648 0.115889 2.5599 0.114481 3.35472 0.122921C3.60934 0.125736 3.78237 0.295955 3.84427 0.608256C3.92727 1.02606 3.98635 1.44809 4.04966 1.86872C4.28037 3.39224 4.50967 4.91437 4.73897 6.43789C4.87684 7.35229 5.0147 8.26527 5.15397 9.17966C5.16382 9.24576 5.1821 9.31195 5.19758 9.37805C5.21868 9.38085 5.23978 9.38364 5.26229 9.38791C5.28761 9.31614 5.3256 9.24716 5.33544 9.17268C5.53239 7.67163 5.73918 6.17061 5.9094 4.66677C5.94597 4.34462 5.85173 4.00419 5.80108 3.675C5.65618 2.71559 5.50003 1.75899 5.35514 0.79958C5.33825 0.685628 5.34388 0.561833 5.36498 0.447885C5.40578 0.218582 5.52676 0.120109 5.76169 0.121515C6.13589 0.124329 6.50869 0.14965 6.88288 0.148243C7.50608 0.14543 8.12928 0.127142 8.75249 0.120109C9.09853 0.115888 9.2406 0.246717 9.2181 0.595595C9.18714 1.08656 9.12103 1.5733 9.07603 2.06285C9.00426 2.86611 8.90301 3.66797 8.88191 4.47264C8.87066 4.89748 8.99162 5.32795 9.07037 5.7542C9.28281 6.90775 9.5037 8.0599 9.72312 9.21201C9.73438 9.27393 9.76533 9.33158 9.78783 9.3907C9.80894 9.38791 9.83004 9.38643 9.85254 9.38643Z" fill="#79716B"/>
<path d="M33.8181 6.97949C33.8181 5.16196 33.8153 3.34301 33.8209 1.52546C33.8223 1.29054 33.8476 1.05279 33.8954 0.823493C33.9757 0.442256 34.2359 0.228428 34.6129 0.160903C34.748 0.136988 34.8858 0.124326 35.0237 0.12292C36.211 0.120106 37.3997 0.110259 38.587 0.124327C39.6069 0.136987 40.5481 0.400053 41.3035 1.13157C42.0589 1.86309 42.3628 2.77327 42.3009 3.80724C42.2348 4.91999 41.8085 5.8372 40.7998 6.41257C40.6972 6.47165 40.6704 6.54059 40.7956 6.58842C41.9042 7.00904 42.3811 7.90658 42.5893 8.9898C42.8327 10.2488 42.6174 11.4291 41.9 12.5025C41.3443 13.3352 40.555 13.7995 39.5633 13.8262C38.0159 13.8684 36.467 13.8656 34.9181 13.86C34.2274 13.8572 33.9292 13.5632 33.8462 12.8851C33.8279 12.736 33.8195 12.584 33.8195 12.4335C33.8181 10.616 33.8181 8.79846 33.8181 6.97949ZM37.093 9.51445H37.0958C37.0958 9.82256 37.0832 10.1307 37.1001 10.4373C37.1155 10.7286 37.1943 11.0099 37.4996 11.1267C38.0665 11.3447 38.6574 11.2575 38.9036 10.5597C39.0695 10.0913 39.0948 9.60593 39.0358 9.1248C38.9992 8.82516 38.9134 8.51852 38.7825 8.24844C38.5898 7.84886 38.1622 7.72931 37.6346 7.86298C37.2872 7.95158 37.1141 8.18792 37.0944 8.63242C37.0832 8.92509 37.093 9.22047 37.093 9.51445ZM37.0565 3.96339C37.0719 4.27147 37.0621 4.49937 37.1029 4.71601C37.1324 4.87497 37.1929 5.06207 37.3055 5.16336C37.6572 5.4827 38.3858 5.36734 38.6208 4.95657C38.9668 4.35166 38.9612 3.72424 38.6222 3.11933C38.3957 2.71559 37.6458 2.61711 37.3012 2.92801C37.2238 2.99835 37.1549 3.10807 37.138 3.20937C37.0916 3.48509 37.0747 3.76785 37.0565 3.96339Z" fill="#79716B"/>
<path d="M14.5663 6.98289C14.5663 6.12335 14.5522 5.26241 14.5705 4.40428C14.5845 3.7431 14.6507 3.08333 14.8307 2.44044C15.1445 1.31925 15.845 0.572259 16.9719 0.264178C18.2169 -0.0762599 19.4745 -0.0903267 20.7237 0.23745C21.8548 0.534277 22.537 1.28971 22.8353 2.40668C23.0139 3.0763 23.073 3.7628 23.0842 4.45212C23.1095 6.05302 23.1419 7.65392 23.1462 9.2548C23.1476 10.0356 23.0688 10.8121 22.8408 11.5676C22.5005 12.6943 21.7802 13.4427 20.6365 13.7353C19.3788 14.0589 18.1113 14.0378 16.8677 13.6636C15.6608 13.3007 15.0108 12.4242 14.7562 11.2228C14.548 10.2396 14.5536 9.24215 14.5564 8.24475C14.5578 7.82414 14.5564 7.40492 14.5564 6.98429C14.5592 6.98289 14.562 6.98289 14.5663 6.98289ZM17.747 6.95756C17.747 8.02672 17.7413 9.09582 17.7498 10.165C17.754 10.7868 18.2421 11.265 18.8499 11.265C19.4604 11.2665 19.957 10.7938 19.9598 10.1735C19.9669 8.03518 19.9626 5.89686 19.9612 3.75858C19.9612 3.4927 19.8683 3.25777 19.6911 3.05942C19.376 2.70773 18.9034 2.58534 18.4743 2.7443C18.034 2.90608 17.7512 3.3042 17.7484 3.78953C17.7442 4.8446 17.747 5.90108 17.747 6.95756Z" fill="#79716B"/>
<path d="M50.7629 6.90986C50.7629 5.11201 50.7614 3.31277 50.7643 1.51492C50.7643 1.33766 50.7741 1.16041 50.798 0.984565C50.8712 0.452809 51.1807 0.172862 51.7349 0.123625C51.8136 0.116591 51.8925 0.117998 51.9712 0.117998C53.5004 0.117998 55.0296 0.113779 56.5587 0.122219C56.7641 0.123626 56.9765 0.164421 57.1721 0.229132C57.4182 0.310725 57.5392 0.504858 57.5364 0.776363C57.5308 1.2814 57.5364 1.78783 57.535 2.29286C57.5336 2.65721 57.3858 2.83306 57.0159 2.8415C56.5249 2.85415 56.0325 2.82602 55.5402 2.83024C55.2082 2.83306 54.8706 2.83587 54.5442 2.88792C54.2432 2.93575 54.0898 3.11581 54.0828 3.41827C54.0702 3.86984 54.0771 4.32423 54.1124 4.77439C54.1433 5.16266 54.3416 5.34554 54.7271 5.35539C55.2518 5.36805 55.778 5.37086 56.2998 5.33569C56.9597 5.29208 57.2775 5.55233 57.2888 6.21633C57.2972 6.63695 57.2958 7.05617 57.2888 7.47679C57.2832 7.85947 57.0947 8.07183 56.7107 8.08168C56.1606 8.09433 55.6091 8.07322 55.0577 8.07043C54.8481 8.06903 54.6385 8.06903 54.4303 8.08595C54.246 8.10139 54.1349 8.21676 54.1053 8.40104C54.0898 8.50376 54.0744 8.60921 54.073 8.71333C54.0702 9.19865 54.0716 9.68544 54.0716 10.1708C54.0716 10.6083 54.3233 10.8995 54.7623 10.9121C55.2406 10.9262 55.7188 10.8924 56.1972 10.8952C56.4771 10.8981 56.7613 10.9107 57.0356 10.9599C57.3057 11.0078 57.4886 11.2019 57.4956 11.4791C57.5111 12.1078 57.5111 12.7367 57.49 13.3655C57.4801 13.6412 57.293 13.7974 57.0159 13.8354C56.9118 13.8494 56.8063 13.848 56.7022 13.848C55.1266 13.8494 53.5524 13.848 51.9769 13.848C51.2833 13.848 50.8796 13.4907 50.7952 12.7943C50.7741 12.6185 50.7643 12.4412 50.7629 12.2654C50.7614 10.4803 50.7629 8.69502 50.7629 6.90986Z" fill="#79716B"/>
<path d="M58.4737 12.1656C58.4737 11.9559 58.4737 11.7449 58.4737 11.5353C58.4737 11.1682 58.6425 10.9543 59.0139 10.9585C59.3558 10.9628 59.7004 11.0303 60.0395 11.0922C60.5234 11.1794 61.0059 11.2807 61.5011 11.1907C61.5911 11.1738 61.6783 11.1442 61.7627 11.1091C62.4816 10.8108 62.7334 10.1384 62.3015 9.49132C61.992 9.02703 61.5869 8.62334 61.2042 8.21111C60.6866 7.65405 60.1421 7.12229 59.6217 6.56662C58.7762 5.66348 58.5243 4.57324 58.689 3.37608C58.748 2.9442 58.8367 2.5081 58.9788 2.09592C59.3192 1.114 60.0169 0.476731 61.02 0.2207C62.2171 -0.0831624 63.4241 -0.0381456 64.6227 0.240394C64.7366 0.267123 64.845 0.317766 64.9519 0.365596C65.2361 0.495018 65.3809 0.701813 65.3669 1.03241C65.3486 1.44459 65.3641 1.85958 65.3612 2.27317C65.3598 2.71068 65.1517 2.94561 64.7127 2.93013C64.302 2.91606 63.8954 2.83869 63.4861 2.79367C63.2525 2.76836 63.0162 2.73318 62.7826 2.73741C62.3254 2.74725 62.0919 3.00188 62.075 3.45767C62.0582 3.90502 62.2058 4.28625 62.5337 4.58589C62.9543 4.97134 63.3946 5.3357 63.811 5.72538C64.4074 6.28527 64.9294 6.90565 65.2979 7.6442C65.7565 8.56282 65.8058 9.54478 65.7495 10.5436C65.7186 11.0922 65.6328 11.6282 65.3486 12.1092C64.7704 13.0912 63.8856 13.6243 62.7868 13.8241C61.7374 14.0141 60.6852 14.0225 59.6399 13.7946C59.3684 13.7355 59.1039 13.6229 58.8549 13.4964C58.5919 13.3613 58.4611 13.1236 58.4723 12.8155C58.4807 12.5988 58.4737 12.3822 58.4737 12.1656Z" fill="#79716B"/>
<path d="M32.6154 8.7215C32.6224 9.66824 32.5901 10.5306 32.3762 11.3788C32.0344 12.7307 31.1819 13.5439 29.8146 13.8084C28.7383 14.0179 27.6608 13.9997 26.5959 13.7451C25.2369 13.4201 24.4702 12.5282 24.2071 11.1749C24.0018 10.1184 23.9962 9.04784 24.051 7.98153C24.0791 7.41602 24.1537 6.84205 24.3057 6.29764C24.6264 5.14269 25.3973 4.39147 26.5523 4.05806C27.6777 3.73311 28.82 3.71622 29.9538 3.99617C31.2748 4.32254 32.0667 5.19614 32.4058 6.49881C32.6027 7.25424 32.6323 8.02653 32.6154 8.7215ZM29.4812 8.87621C29.4812 8.4106 29.484 7.94359 29.4797 7.47792C29.4755 6.99961 29.1478 6.57196 28.6919 6.4355C27.959 6.21604 27.2627 6.7478 27.2514 7.55107C27.2402 8.43737 27.2486 9.32359 27.25 10.2099C27.25 10.2816 27.2613 10.3533 27.2739 10.4251C27.3808 11.0258 27.8774 11.4028 28.4921 11.3507C29.045 11.3044 29.4755 10.819 29.4783 10.2366C29.484 9.78221 29.4812 9.32925 29.4812 8.87621Z" fill="#79716B"/>
<path d="M43.7518 6.98628C43.7518 5.17577 43.7504 3.36386 43.7532 1.55335C43.7532 1.37047 43.7645 1.18619 43.7856 1.00331C43.8432 0.50672 44.0922 0.200046 44.5902 0.157843C45.1417 0.110013 45.7044 0.11564 46.2558 0.162063C46.7131 0.200045 46.9578 0.495466 47.0197 0.955482C47.0479 1.16227 47.0605 1.37329 47.0605 1.5829C47.0633 4.43019 47.0619 7.27889 47.0633 10.1262C47.0633 10.2767 47.0773 10.4273 47.1027 10.5749C47.1604 10.9055 47.3531 11.0702 47.6865 11.0659C48.086 11.0603 48.4856 11.0392 48.8851 11.0293C49.6912 11.0082 49.9374 11.246 49.9346 12.0548C49.9332 12.3756 49.9289 12.6991 49.8924 13.0157C49.8346 13.5109 49.5125 13.7979 49.0145 13.8372C48.9427 13.8429 48.871 13.8457 48.7979 13.8457C47.4924 13.8457 46.1869 13.8471 44.8814 13.8457C44.164 13.8443 43.8292 13.5362 43.7729 12.8285C43.7588 12.6527 43.7518 12.4754 43.7518 12.2982C43.7518 10.5299 43.7518 8.75878 43.7518 6.98628Z" fill="#79716B"/>
<path d="M29.4657 1.55928C29.4657 1.92645 29.4672 2.29502 29.4643 2.66218C29.463 2.91962 29.3799 2.9984 29.1197 3.00684C28.5373 3.02372 28.5008 2.98855 28.5008 2.4146C28.5008 2.32316 28.5008 2.23031 28.5008 2.13887C28.4993 1.86455 28.2475 1.71544 28.0098 1.85892C27.9591 1.88987 27.9282 1.98835 27.9254 2.05868C27.9141 2.26829 27.9254 2.47931 27.9183 2.68891C27.9113 2.90978 27.8241 2.99981 27.6032 3.00544C26.9814 3.02091 26.9491 3.00403 26.9575 2.40896C26.9674 1.7717 26.9589 1.13585 26.9603 0.498581C26.9617 0.190499 27.0363 0.117347 27.3458 0.115941C27.9183 0.114534 27.9183 0.114533 27.9197 0.695527C27.9197 0.708188 27.9197 0.722256 27.9197 0.734916C27.9226 1.06832 28.0857 1.18508 28.4037 1.06832C28.4515 1.05144 28.4965 0.967036 28.5022 0.910761C28.5162 0.754611 28.5022 0.595648 28.5092 0.43809C28.5204 0.191906 28.6048 0.114533 28.851 0.107499C29.4517 0.0920247 29.463 0.101872 29.463 0.711002C29.4657 0.99517 29.4657 1.27793 29.4657 1.55928Z" fill="#79716B"/>
<path d="M29.9272 1.62594C29.9272 1.24612 29.9244 0.864883 29.9286 0.48506C29.9313 0.186826 30.0073 0.11086 30.3014 0.109453C30.767 0.108047 31.2327 0.108047 31.6983 0.109453C31.9571 0.11086 31.9839 0.140402 31.9853 0.3894C31.9881 0.788924 31.9881 0.788924 31.5886 0.788924C31.4197 0.788924 31.2495 0.780482 31.0807 0.791733C30.8542 0.8058 30.9175 0.98728 30.9105 1.12092C30.9021 1.29677 31.0329 1.23065 31.1173 1.23206C31.2945 1.23346 31.4718 1.22784 31.6476 1.22502C31.8123 1.2222 31.9009 1.29255 31.9064 1.4698C31.9234 1.94809 31.9248 1.94951 31.4394 1.94247C31.341 1.94106 31.2425 1.93825 31.144 1.93966C30.909 1.93966 30.8824 1.96638 30.881 2.19428C30.8796 2.40107 30.9386 2.46579 31.1454 2.47142C31.3424 2.47564 31.5393 2.47142 31.7363 2.47422C31.8938 2.47564 31.9712 2.5516 31.9768 2.7176C31.9965 3.23951 31.9993 3.23951 31.4704 3.23951C31.0962 3.23951 30.722 3.24092 30.3492 3.23951C30.0453 3.2381 29.9299 3.12978 29.9272 2.82732C29.923 2.4264 29.9272 2.02688 29.9272 1.62594Z" fill="#79716B"/>
<path d="M25.0745 1.93676C25.0745 1.62165 25.0689 1.30653 25.0773 0.991418C25.0801 0.852146 25.0267 0.8001 24.8931 0.809946C24.8284 0.814167 24.7509 0.829638 24.6989 0.802909C24.63 0.766335 24.5808 0.69459 24.5244 0.636913C24.5216 0.634099 24.5244 0.624252 24.523 0.617218C24.4879 0.12907 24.5062 0.109375 25.0042 0.109375C25.4248 0.109375 25.844 0.109375 26.2646 0.109375C26.5896 0.109375 26.6163 0.136104 26.6163 0.452627C26.6163 0.479355 26.6163 0.504676 26.6163 0.531405C26.6149 0.788842 26.5559 0.856367 26.3026 0.822608C26.1071 0.797283 26.0494 0.857772 26.0536 1.0505C26.0635 1.63431 26.0578 2.21811 26.0564 2.80334C26.055 3.16206 25.9748 3.24084 25.6147 3.24084C25.5824 3.24084 25.5486 3.24084 25.5163 3.24084C25.1533 3.23943 25.0759 3.16346 25.0745 2.80474C25.0731 2.51495 25.0745 2.22515 25.0745 1.93676Z" fill="#79716B"/>
</g>
</g>
<defs>
<clipPath id="clip0_8806_7288">
<rect width="65.1746" height="13.966" fill="white" transform="translate(0.619141)"/>
</clipPath>
</defs>
</svg>
